<?xml version="1.0" encoding="UTF-8"?><svg id="_レイヤー_2" xmlns="http://www.w3.org/2000/svg" xmlns:xlink="http://www.w3.org/1999/xlink" viewBox="0 0 490 181.48"><defs><clipPath id="clippath"><rect width="490" height="181.48" style="fill:none;"/></clipPath></defs><g id="_背景"><g><rect width="490" height="181.48" style="fill:#f49ea6;"/><g><path d="M205.34,61.34c.83,.21,1.27,.58,1.27,1.54,0,1.18-.72,2.54-2.04,2.54-1.94,0-5.8-1.88-7.43-3.01-1.42,.99-2.98,1.8-4.58,2.43-.65,.26-1.76,.63-2.41,.63-1.22,0-1.94-1.41-1.94-2.48,0-1.15,.75-1.52,1.89-1.88,1.29-.42,2.61-.89,3.86-1.7-.44-.55-1.22-1.49-1.76-2.43-.36-.63-.65-1.25-.65-1.75,0-1.2,1.19-1.86,2.25-1.86,.65,0,1.01,.26,1.55,1.1,.39,.6,1.04,1.57,1.71,2.54,.41-.42,1.27-1.44,1.79-2.3,.21-.37,.36-.73,.36-.99,0-.31-.36-.39-.62-.39h-7.09c-.85,3.45-2.02,6.17-3.88,9.2-.44,.71-1.37,2.09-2.1,2.46-.26,.13-.57,.18-.85,.18-1.22,0-2.3-1.05-2.3-2.27,0-.39,.28-1.05,1.06-1.96,2.74-3.27,4.48-7.89,5.02-13.38h-4.45c-1.45,0-1.91-.71-1.91-2.12,0-1.31,.65-1.91,1.91-1.91h4.71v-.24c0-1.49,.08-2.82,2.15-2.82,1.68,0,2.12,.84,2.12,1.93,0,.39,0,.68-.03,1.12h11.88c1.45,0,1.92,.73,1.92,2.14,0,1.31-.65,1.88-1.92,1.88h-12.27c-.08,.65-.18,1.28-.29,1.93h9.14c2.04,0,2.72,1.02,2.72,2.56,0,.94-.23,1.88-.6,2.8-.72,1.78-1.99,3.42-3.18,4.73,1.73,.89,3,1.25,5,1.78Z" style="fill:#fff;"/><path d="M214.08,43.93c.21-1.54,.36-2.64,2.12-2.64,1.16,0,2.17,.39,2.17,1.73,0,.47-.1,1.05-.21,1.54,1.32,0,2.72-.05,3.88-.1,.91-.05,3.18-.16,3.7-.16,1.29,0,2.04,.58,2.04,1.96s-.8,1.88-2.1,1.93c-2.79,.13-5.54,.24-8.28,.29-.44,2.27-1.29,5.23-1.97,7.53-.65,2.22-1.37,4.42-2.12,6.59-.36,1.05-.8,2.09-2.1,2.09-1.09,0-2.38-.65-2.38-1.88,0-.6,.41-1.54,.67-2.09,1.48-3.32,3.03-8.57,3.75-12.15h-1.66c-1.66,0-2.61-.18-2.61-2.01,0-1.44,.8-1.91,2.1-1.91,.96,0,1.81,0,2.87,.03,.05-.29,.08-.5,.1-.73Zm16.41,20.13c-1.11,.39-3.18,.42-4.37,.42-1.89,0-4.58-.08-6.31-.76-1.68-.65-2.48-1.78-2.48-3.61,0-1.7,.65-3.27,2.54-3.27,.8,0,1.94,.31,1.94,1.33,0,.34-.1,.58-.23,.89-.05,.13-.08,.31-.08,.47,0,.39,.23,.65,.57,.78,.57,.21,1.6,.31,2.59,.31,1.29,0,2.67-.05,4.04-.26,.34-.05,.85-.1,1.14-.1,1.17,0,1.84,.65,1.84,1.83,0,.89-.26,1.65-1.16,1.96Zm-1.5-9.7c-.36,0-.67,0-1.19-.05-.49-.05-1.04-.05-1.58-.05-1.35,0-2.61,.05-3.7,.16-.83,.08-1.5,.13-2.02,.13-1.17,0-1.71-.84-1.71-1.96,0-1.05,.57-1.65,1.55-1.86,1.63-.37,4.68-.44,6.39-.44,2.64,0,4.19,.13,4.19,2.04,0,1.36-.57,2.04-1.94,2.04Zm-1.14-10.48c-.16-.58-.41-1.28-.7-1.96-.05-.13-.05-.34-.05-.5,0-.55,.52-.81,1.01-.81,.62,0,.85,.65,1.16,1.46,.21,.55,.57,1.49,.57,2.06s-.44,.91-1.01,.91c-.65,0-.83-.55-.98-1.18Zm3.05-.29c-.1-.37-.34-1.15-.49-1.49-.23-.52-.31-.76-.31-1.07,0-.55,.57-.81,1.01-.81,.62,0,.88,.65,1.09,1.15,.21,.52,.65,1.8,.65,2.35,0,.6-.44,.92-.98,.92-.65,0-.8-.52-.96-1.05Z" style="fill:#fff;"/><path d="M242.26,51.54c2.15-1.05,3.68-1.44,6.06-1.44,2.12,0,4.87,.42,6.47,1.93,1.4,1.33,2.02,2.98,2.02,4.91,0,2.56-1.17,4.97-3.55,6.06-2.56,1.18-5.43,1.46-8.2,1.46-1.53,0-4.99-.18-6.31-.78-.78-.37-1.11-.89-1.11-1.73,0-.99,.57-2.01,1.66-2.01,.36,0,.96,.1,1.79,.29,1.06,.24,2.56,.39,4.5,.39,2.51,0,6.88-.42,6.88-3.79,0-2.56-2.67-3.14-4.71-3.14-2.54,0-5.07,.6-6.96,2.4-.6,.58-.98,.92-1.86,.92-.98,0-2.33-.63-2.33-1.8,0-.55,.18-.99,.65-1.83,.75-1.36,1.63-3.55,2.1-5.04h-2.1c-1.14,0-2.41-.08-2.41-1.96s1.37-1.93,2.74-1.93h.57c.78,0,1.5,0,2.28-.03,.08-.34,.16-.71,.21-1.02,.26-1.36,.47-2.17,2.25-2.17,1.17,0,2.25,.34,2.25,1.7,0,.29-.05,.71-.23,1.44,2.69-.03,5.67-.05,7.79-.21,.85-.05,1.79-.1,2.67-.1,1.35,0,2.1,.55,2.1,1.96s-.8,1.88-2.12,1.93c-3.88,.18-7.79,.26-11.7,.34-.44,1.2-.78,2.12-1.37,3.24Z" style="fill:#fff;"/><path d="M264.01,63.67c0,1.39-.57,1.91-1.92,1.91-1.24,0-1.71-.73-1.71-1.91v-19.03c0-2.74,.49-3.27,3.21-3.27h3.11c1.94,0,3.23,.21,3.23,2.54,0,1.78-1.01,4.08-1.91,5.99-.08,.16-.13,.31-.13,.39,0,.16,.13,.26,.23,.37,1.42,1.39,2.1,3.69,2.1,5.62,0,1.44-.36,3.29-1.81,3.92-.65,.26-1.32,.29-2.02,.29-1.14,0-2.07,0-2.38-1.31v4.5Zm1.14-6.95c.52-.03,1.09-.1,1.09-1.36s-.65-2.43-1.37-3.4c-.49-.68-.62-.86-.62-1.36,0-.42,.21-.91,.49-1.52,.21-.47,1.24-3.35,1.24-3.71,0-.31-.21-.42-.49-.42h-.98c-.34,0-.49,.18-.49,.52v12.18c.18-.65,.49-.89,1.14-.94Zm14.54-.47c.49-.39,.85-.71,1.19-.99,.65-.58,1.06-.92,1.66-.92,1.01,0,1.76,1.02,1.76,1.99,0,.76-.65,1.28-1.19,1.7-.57,.47-1.17,.89-1.76,1.31,.75,1.07,1.5,1.73,2.46,2.64,.36,.34,.6,.78,.6,1.33,0,1.12-1.06,2.17-2.17,2.17-.39,0-.78-.16-1.09-.37-.98-.65-2.28-2.54-2.87-3.58-1.42-2.38-2.23-4.84-2.54-7.61h-1.24v6.8c.78-.18,1.48-.31,2.17-.31,1.04,0,1.45,.94,1.45,1.86,0,1.41-.88,1.59-3.05,2.06-.83,.18-4.61,.94-5.25,.94-1.14,0-1.63-.99-1.63-2.04,0-1.25,.65-1.54,1.5-1.7,.34-.05,.72-.13,1.09-.18v-16.73c0-2.72,.52-3.24,3.21-3.24h6.29c2.69,0,3.21,.52,3.21,3.24v6.06c0,2.72-.52,3.24-3.21,3.24h-1.19c.16,.81,.34,1.54,.62,2.33Zm.05-10.95c0-.31-.16-.5-.49-.5h-4.27c-.34,0-.49,.18-.49,.5v1.1h5.25v-1.1Zm-5.25,3.82v1.65h4.76c.34,0,.49-.16,.49-.5v-1.15h-5.25Z" style="fill:#fff;"/><path d="M301.3,61.13h6.96c1.24,0,1.97,.6,1.97,1.88,0,1.36-.65,2.01-1.97,2.01h-7.43c-3.73,0-6.99-.76-9.32-3.89-.54,1.25-1.16,2.46-2.04,3.5-.41,.5-.85,.73-1.5,.73-1.11,0-2.25-.94-2.25-2.09,0-.65,.36-1.18,.72-1.7,1.66-2.35,2.38-4.47,2.9-7.29,.23-1.18,.44-1.93,1.81-1.93,.96,0,2.2,.42,2.2,1.57,0,.76-.36,2.51-.54,3.29,.8,1.41,1.66,2.38,3.16,3.03v-8.42h-5.23c-1.32,0-1.94-.39-1.97-1.86-.23,.05-.47,.08-.72,.08-1.35,0-1.94-.55-1.94-1.93v-2.27c0-2.25,.91-3.16,3.16-3.16h6.6v-.55c0-1.36,1.11-1.49,2.2-1.49,1.01,0,1.84,.37,1.84,1.49v.55h6.65c2.23,0,3.13,.92,3.13,3.16v2.27c0,1.36-.57,1.93-1.94,1.93-.26,0-.49-.03-.75-.1v.16c0,1.25-.7,1.73-1.86,1.73h-5.33v2.56h6.06c1.29,0,1.86,.55,1.86,1.86,0,1.23-.75,1.67-1.86,1.67h-6.06v3.16c.49,.05,.98,.05,1.5,.05Zm4.53-14.3c0-.5-.26-.73-.72-.73h-14.39c-.47,0-.72,.24-.72,.73v1.54c.26-.05,.49-.05,.75-.05h14.39c.23,0,.44,0,.7,.05v-1.54Z" style="fill:#fff;"/><path d="M323.26,56.95c-.62,1.52-1.92,3.66-3.31,4.55-.83,.52-1.71,.78-2.67,.78-4.06,0-5.36-4.39-5.36-7.76,0-7.53,5.25-12.36,12.6-12.36,6.81,0,11.08,4.13,11.08,11.03,0,4.26-1.86,7.82-5.69,9.75-1.42,.71-3.7,1.39-5.31,1.39-1.29,0-2.07-.84-2.07-2.14,0-1.52,.91-1.83,2.02-1.99,1.68-.24,3.26-.63,4.61-1.75,1.63-1.36,2.12-3.63,2.12-5.7,0-3.4-1.73-6.33-5.33-6.64-.44,3.63-1.32,7.45-2.69,10.85Zm-7.35-2.38c0,.97,.28,3.21,1.6,3.21,1.22,0,2.02-2.22,2.38-3.21,1.01-2.85,1.58-5.36,2.02-8.36-3.99,1.07-6,4.31-6,8.36Z" style="fill:#fff;"/><path d="M191.73,82.92c-.03-.29-.03-.57-.03-.78,0-1.02,.85-1.65,2.3-1.65s1.92,.63,1.99,1.99l.13,2.01,6.18-.39c1.32-.1,2.15,.6,2.15,1.99,0,1.23-.75,1.86-1.92,1.91l-6.16,.42,.26,4.05,7.19-.42c1.32-.1,2.15,.63,2.15,1.99,0,1.28-.72,1.88-1.92,1.96l-7.17,.42,.31,5.02c.03,.26,.05,.57,.05,.71,0,1.39-.67,1.93-2.2,1.93-1.66,0-2.04-.76-2.12-2.06l-.34-5.33-7.48,.47c-1.35,.08-2.15-.63-2.15-2.04,0-1.25,.75-1.83,1.92-1.91l7.45-.47-.26-4.05-6.24,.42c-1.32,.08-2.17-.6-2.17-1.99,0-1.25,.75-1.86,1.92-1.93l6.24-.39-.1-1.86Z" style="fill:#fff;"/><path d="M226.61,88.26c.21-.03,.39-.03,.59-.03,1.53,0,2.41,.6,2.41,2.2s-1.19,4.05-2.15,5.33c-.7,.97-2.25,2.74-3.52,2.74-.98,0-1.99-.86-1.99-1.88,0-.92,.8-1.41,1.42-1.96,.98-.86,1.76-2.22,1.76-2.51,0-.13-.1-.16-.39-.13l-4.76,.5,.93,9.31c.03,.18,.03,.23,.03,.34-.03,1.2-.72,1.86-2.04,1.86-1.22,0-1.76-.65-1.89-1.83l-.93-9.25-3.08,.31c-.18,.03-.26,.03-.39,.03-1.11,0-1.79-.68-1.79-1.99,0-1.2,.67-1.73,1.79-1.83l3.11-.26-.26-2.48c-.03-.18-.03-.26-.03-.37,0-1.23,.78-1.8,2.07-1.8,1.22,0,1.73,.58,1.84,1.75l.26,2.56,7.01-.6Z" style="fill:#fff;"/><path d="M237.47,81.77c.36,0,.72,.1,1.5,.47,1.4,.65,3.39,1.73,4.68,2.54,1.24,.78,2.15,1.33,2.15,2.48,0,.94-.93,2.43-2.2,2.43-.67,0-1.37-.5-1.91-.89-1.48-1.05-3.13-1.99-4.74-2.85-.8-.42-1.55-.89-1.55-1.88,0-1.07,.96-2.3,2.07-2.3Zm20.03,4.5c0,.81-.44,1.99-.72,2.74-1.32,3.32-3.16,6.38-5.77,8.78-2.92,2.69-6.29,4.05-10.09,4.91-.72,.16-1.99,.42-2.72,.42-1.4,0-2.1-1.12-2.1-2.43,0-1.59,.96-1.88,2.3-2.06,3.73-.47,6.65-1.52,8.98-3.29,2.59-1.96,4.45-4.84,5.82-8.81,.41-1.25,.57-2.2,1.92-2.2,1.14,0,2.38,.63,2.38,1.93Z" style="fill:#fff;"/><path d="M272.27,84.31c1.27,1.18,3.6,4.44,4.76,5.99,2.17,2.88,3.57,4.39,5.95,7.01,.78,.84,1.11,1.33,1.11,2.06,0,1.33-1.16,2.56-2.48,2.56-.75,0-1.24-.47-1.73-.99-2.25-2.35-6.24-8.05-8.31-10.93-.6-.89-1.5-2.12-2.15-2.12-.36,0-.59,.24-.83,.52-.54,.68-1.99,3.11-2.54,3.97-.44,.71-1.63,2.54-2.15,3.06-.39,.37-.78,.55-1.32,.55-1.24,0-2.51-1.18-2.51-2.46,0-1.02,.75-1.73,1.37-2.46,1.35-1.59,2.56-3.27,3.75-4.99,1.06-1.57,2.1-3.03,4.17-3.03,1.27,0,1.97,.39,2.9,1.25Zm10.84,.31c0,1.62-1.29,2.93-2.87,2.93s-2.9-1.31-2.9-2.93,1.29-2.9,2.9-2.9,2.87,1.31,2.87,2.9Zm-4.11,0c0,.71,.54,1.25,1.24,1.25s1.22-.55,1.22-1.25-.54-1.23-1.22-1.23-1.24,.55-1.24,1.23Z" style="fill:#fff;"/><path d="M288.67,94.48c-1.53,0-2.28-.6-2.28-2.22s.85-2.12,2.28-2.12h18.48c1.48,0,2.28,.6,2.28,2.17s-.8,2.14-2.28,2.17h-18.48Z" style="fill:#fff;"/><path d="M315.09,81.77c.36,0,.72,.1,1.5,.47,1.4,.65,3.39,1.73,4.68,2.54,1.24,.78,2.15,1.33,2.15,2.48,0,.94-.93,2.43-2.2,2.43-.67,0-1.37-.5-1.92-.89-1.47-1.05-3.13-1.99-4.74-2.85-.8-.42-1.55-.89-1.55-1.88,0-1.07,.96-2.3,2.07-2.3Zm20.03,4.5c0,.81-.44,1.99-.72,2.74-1.32,3.32-3.16,6.38-5.77,8.78-2.92,2.69-6.29,4.05-10.09,4.91-.72,.16-1.99,.42-2.72,.42-1.4,0-2.1-1.12-2.1-2.43,0-1.59,.96-1.88,2.3-2.06,3.73-.47,6.65-1.52,8.98-3.29,2.59-1.96,4.45-4.84,5.82-8.81,.41-1.25,.57-2.2,1.92-2.2,1.14,0,2.38,.63,2.38,1.93Z" style="fill:#fff;"/><path d="M340,86.74c-1.4,0-1.99-.94-1.99-2.25s.62-1.99,1.86-2.12c1.86-.18,10.04-.42,12.4-.47,2.02-.05,4.04-.1,6.06-.1,1.53,0,2.85,.05,2.85,2.06s-1.4,2.06-2.87,2.09c-2.07,.03-3.67,.6-5.46,1.62-2.61,1.52-5.31,4.39-5.31,7.58,0,3.84,4.22,3.95,7.01,3.95h1.76c1.4,0,2.46,.31,2.46,1.96,0,2.46-1.86,2.46-3.75,2.46-2.48,0-5.44-.42-7.71-1.39-2.69-1.15-4.06-3.69-4.06-6.56,0-2.64,1.09-4.78,2.79-6.72,1.11-1.25,2.02-1.93,3.39-2.8-1.27,.1-8.75,.68-9.42,.68Zm15.06,4.65c-.18-.42-.44-.99-.65-1.33-.21-.34-.44-.73-.44-1.12,0-.5,.59-.84,1.01-.84,.49,0,.85,.52,1.24,1.25,.26,.5,.83,1.67,.83,2.2,0,.57-.57,.89-1.04,.89-.49,0-.7-.47-.96-1.05Zm2.69-1.25c-.26-.6-.57-1.2-.88-1.78-.08-.16-.21-.47-.21-.65,0-.52,.59-.84,1.01-.84,.52,0,.8,.47,1.24,1.28,.28,.52,.85,1.59,.85,2.17,0,.52-.54,.86-1.04,.86s-.67-.34-.98-1.05Z" style="fill:#fff;"/><path d="M201.82,123.25c1.71,0,2.74,.68,2.74,2.48,0,.97-.36,2.54-.62,3.48-.8,2.77-2.23,5.46-4.14,7.61-2.77,3.06-6.29,4.73-10.17,5.8-.7,.18-1.86,.47-2.56,.47-1.29,0-2.02-.99-2.02-2.25,0-1.54,1.14-1.59,2.56-1.93,4.89-1.18,8.7-3.01,11.03-7.76,.34-.68,1.24-2.93,1.24-3.63,0-.34-.23-.39-.52-.39h-7.45c-1.11,1.44-4.27,5.15-6.13,5.15-1.09,0-2.07-1.02-2.07-2.12,0-.73,.31-1.07,.85-1.46,1.24-.97,1.94-1.52,3-2.69,1.06-1.2,2.1-2.67,2.82-4.1,.57-1.1,.91-2.12,2.33-2.12,.96,0,2.3,.5,2.3,1.65,0,.6-.36,1.31-.65,1.83h7.45Z" style="fill:#fff;"/><path d="M211.05,133.68c-1.53,0-2.28-.6-2.28-2.22s.85-2.12,2.28-2.12h18.48c1.47,0,2.28,.6,2.28,2.17s-.8,2.14-2.28,2.17h-18.48Z" style="fill:#fff;"/><path d="M242.44,131.45c0,.44-.16,1.1-.29,1.52-.49,1.78-1.04,3.53-1.84,5.15-.62,1.25-1.66,3.19-2.98,3.19-1.17,0-2.54-.89-2.54-2.17,0-.52,.26-.91,.54-1.31,1.53-2.14,2.3-4.05,2.98-6.56,.29-1.05,.65-1.54,1.79-1.54,1.06,0,2.33,.47,2.33,1.73Zm1.58-9.65c0-1.52,.8-1.96,2.2-1.96,1.32,0,2.04,.58,2.04,1.96v2.35h6.11c-.91-.52-1.47-1.44-1.47-2.51,0-1.62,1.27-2.98,2.9-2.98s2.87,1.36,2.87,2.98c0,1.39-.93,2.51-2.25,2.8,.52,.39,.72,1.02,.72,1.67,0,1.39-.75,1.99-2.04,1.99h-6.83v13.1c0,1.49-.8,1.96-2.17,1.96s-2.07-.58-2.07-1.96v-13.1h-6.81c-1.32,0-2.07-.6-2.07-1.99s.75-1.96,2.07-1.96h6.81v-2.35Zm8.2,7.92c1.14,0,1.5,.5,1.79,1.54,.7,2.56,1.42,4.39,2.98,6.56,.31,.42,.54,.78,.54,1.33,0,1.25-1.37,2.14-2.54,2.14-1.4,0-2.41-2.09-2.95-3.19-.85-1.67-1.55-3.87-1.99-5.7-.08-.34-.16-.65-.16-.97,0-1.25,1.27-1.73,2.33-1.73Zm2.3-8.13c0,.71,.57,1.25,1.24,1.25s1.24-.55,1.24-1.25-.54-1.25-1.24-1.25-1.24,.58-1.24,1.25Z" style="fill:#fff;"/><path d="M263.34,120.97c.36,0,.72,.1,1.5,.47,1.4,.65,3.39,1.73,4.68,2.54,1.24,.78,2.15,1.33,2.15,2.48,0,.94-.93,2.43-2.2,2.43-.67,0-1.37-.5-1.92-.89-1.47-1.05-3.13-1.99-4.74-2.85-.8-.42-1.55-.89-1.55-1.88,0-1.07,.96-2.3,2.07-2.3Zm20.03,4.5c0,.81-.44,1.99-.72,2.74-1.32,3.32-3.16,6.38-5.77,8.78-2.92,2.69-6.29,4.05-10.09,4.91-.72,.16-1.99,.42-2.72,.42-1.4,0-2.1-1.12-2.1-2.43,0-1.59,.96-1.88,2.3-2.06,3.73-.47,6.65-1.52,8.98-3.29,2.59-1.96,4.45-4.84,5.82-8.81,.41-1.25,.57-2.2,1.92-2.2,1.14,0,2.38,.63,2.38,1.93Z" style="fill:#fff;"/><path d="M296.75,119.59c.98,0,2.1,.37,2.1,1.54,0,.37-.16,.76-.29,1.1,1.48-.03,2.92-.08,4.4-.13,.91-.03,2.61-.13,3.44-.13,1.24,0,1.97,.55,1.97,1.88,0,1.05-.49,1.67-1.53,1.83-.96,.16-8.9,.34-10.4,.37-.41,.65-.8,1.31-1.19,1.96,.98-.55,2.15-.92,3.29-.92,1.66,0,3.03,.76,3.83,2.25,1.11-.42,3.99-1.36,5.1-1.36,1.24,0,1.84,.94,1.84,2.12,0,1.36-.72,1.78-2.23,2.09-1.04,.21-2.3,.47-3.96,.97,.08,.91,.13,1.8,.13,2.72,0,1.46-.26,2.54-1.97,2.54-1.92,0-1.99-1.36-1.99-2.06v-1.78c-1.58,.68-3.83,1.7-3.83,3.4,0,1.41,2.74,1.46,4.01,1.46,2.04,0,3.54-.16,5.72-.5,.31-.05,.67-.08,.98-.08,1.16,0,1.73,.76,1.73,1.88,0,.94-.36,1.52-1.24,1.8-1.53,.5-4.45,.6-6.13,.6-2.22,0-4.63-.03-6.73-.86-1.58-.6-2.69-2.01-2.69-3.74,0-3.92,4.37-6.25,7.43-7.66-.39-.39-.88-.57-1.42-.57-1.09,0-2.35,.5-3.23,1.12-1.35,.91-2.36,2.25-3.31,3.55-.57,.78-1.06,1.46-2.12,1.46s-1.97-.94-1.97-2.01,1.14-2.09,1.84-2.88c1.63-1.8,2.69-3.4,3.99-5.44-.96,0-1.94,.03-2.92,.03-1.27,0-2.15-.47-2.15-1.91,0-.73,.34-1.54,1.09-1.75,.67-.16,4.84-.16,5.88-.16,.72-1.78,.7-2.74,2.56-2.74Z" style="fill:#fff;"/><path d="M333.23,124.35c1.29,0,2.04,.68,2.04,2.01s-.75,2.01-2.04,2.01h-3.93c-.21,2.14-.52,4.18-1.22,6.25-.93,2.69-2.9,5.04-5.3,6.48-1.4,.84-4.09,1.96-5.72,1.96-1.32,0-1.99-1.1-1.99-2.27s.62-1.49,1.58-1.73c2.43-.63,4.37-1.39,6.03-3.37,1.79-2.09,2.07-4.71,2.3-7.32h-5.72c-.83,1.41-1.84,2.9-3.05,4.03-.41,.39-.91,.68-1.5,.68-1.09,0-2.17-.94-2.17-2.04,0-.92,.75-1.52,1.32-2.14,1.86-2.09,2.95-4.78,3.75-7.45,.31-1.05,.67-1.62,1.84-1.62s2.3,.44,2.3,1.78c0,.76-.44,2.01-.7,2.74h12.19Zm-2.25-2.14c-.08-.37-.29-1.02-.41-1.33-.21-.52-.29-.73-.29-1.05,0-.58,.54-.84,1.04-.84,.62,0,.88,.71,1.11,1.39,.26,.68,.54,1.65,.54,2.12,0,.6-.41,.91-.98,.91-.67,0-.85-.55-1.01-1.2Zm3.11,.08c-.13-.39-.31-1.07-.52-1.59-.21-.52-.29-.81-.29-1.05,0-.55,.57-.81,1.04-.81,.6,0,.85,.6,1.14,1.44,.21,.52,.52,1.49,.52,2.04,0,.6-.41,.92-1.01,.92s-.67-.29-.88-.94Z" style="fill:#fff;"/><path d="M342.04,132.63c-.34-1.23-.7-2.43-1.19-3.58-.21-.47-.41-.91-.41-1.44,0-1.07,1.11-1.65,2.07-1.65,1.04,0,1.42,.63,1.81,1.52,.44,.94,1.66,4.18,1.66,5.1,0,1.18-1.19,1.78-2.23,1.78-1.14,0-1.45-.78-1.71-1.73Zm16.77-5.44c0,.6-.23,1.52-.39,2.12-.62,2.51-1.53,4.89-3,7.03-1.86,2.77-4.55,4.73-7.66,5.88-.75,.26-2.1,.71-2.85,.71-1.27,0-1.84-1.15-1.84-2.06,0-1.07,.78-1.39,1.66-1.65,2.69-.81,4.79-1.62,6.73-3.79,1.99-2.25,2.74-4.89,3.31-7.76,.23-1.18,.47-2.22,1.89-2.22,1.09,0,2.15,.55,2.15,1.75Zm-11.02,4.21c-.26-1.23-.57-2.46-.98-3.63-.23-.65-.34-.99-.34-1.36,0-1.07,1.09-1.62,2.04-1.62,1.14,0,1.5,.65,1.86,1.62,.36,.91,1.35,4.16,1.35,5.04,0,1.23-1.09,1.8-2.17,1.8-1.27,0-1.53-.81-1.76-1.86Z" style="fill:#fff;"/><path d="M384.35,130.23c1.29,.63,2.17,1.15,2.17,2.38s-.85,2.61-2.17,2.61c-.65,0-1.32-.37-2.07-.81-2.36-1.44-5.18-2.9-7.76-3.82v10.46c0,1.54-.7,2.17-2.23,2.17s-2.2-.63-2.2-2.17v-19.13c0-1.54,.67-2.17,2.2-2.17s2.23,.63,2.23,2.17v4.29c3.26,.99,6.81,2.46,9.83,4.03Z" style="fill:#fff;"/><path d="M403.88,139.48c0,1.41-1.11,2.54-2.48,2.54s-2.48-1.12-2.48-2.54,1.11-2.51,2.48-2.51,2.48,1.12,2.48,2.51Zm-1.14-5.78c-.1,.91-.31,1.57-1.37,1.57s-1.22-.71-1.32-1.57l-.91-7.01v-5.02c0-1.57,.83-2.12,2.3-2.12s2.2,.63,2.2,2.12v5.02l-.91,7.01Z" style="fill:#fff;"/></g><circle cx="90.74" cy="90.74" r="59.89" style="fill:#fff;"/><g><g><path d="M68.86,59.41c.62-.09,1.19-.13,1.81-.13,3.97,0,7.89,1.42,7.89,6.08,0,2.66-1.44,4.68-3.9,5.57-1.14,.41-2.39,.59-3.6,.59-.8,0-2.07-.07-2.07-1.68,0-1.42,1.14-1.42,1.88-1.42h.09c2.01,0,3.97-.65,3.97-3.05,0-2.68-2.29-3.09-4.44-3.09-.58,0-1.04,.04-1.62,.13v3.38c0,1.46-.02,2.85-.86,4.12-.8,1.18-1.96,1.52-3.32,1.52-2.8,0-4.85-1.96-4.85-4.81,0-3.55,2.8-5.36,5.76-6.49v-2.16c-1.32,.04-2.54,.07-3.79,.07-1.14,0-1.81-.33-1.81-1.59,0-.85,.37-1.37,1.23-1.52,.19-.04,1.19-.07,2.22-.07,.88,0,1.79-.02,2.16-.04v-1.02c0-1.22,.39-1.76,1.64-1.76s1.64,.57,1.64,1.74v.89c.22,0,.32,0,.67-.02,.54-.04,.67-.04,1.01-.04,1.08,0,1.66,.44,1.66,1.59,0,.96-.43,1.39-1.1,1.5-.58,.09-1.32,.13-2.24,.15v1.57Zm-5.86,7.01c0,.85,.5,1.81,1.44,1.81,1.16,0,1.19-1.74,1.19-2.57v-2.37c-1.32,.61-2.63,1.52-2.63,3.14Zm10.76-13.61c1.12,0,3.06,1.76,3.82,2.57,.56,.61,1.38,1.48,1.38,2.37,0,.96-.88,1.72-1.81,1.72-.69,0-1.01-.41-1.49-1.09-.75-1.07-1.6-1.98-2.67-2.72-.47-.33-.88-.72-.88-1.35,0-.81,.91-1.5,1.66-1.5Z" style="fill:#f49ea6;"/><path d="M98.09,60.87c1.08,.52,1.81,.96,1.81,1.98s-.71,2.18-1.81,2.18c-.54,0-1.1-.31-1.73-.68-1.96-1.2-4.31-2.42-6.47-3.18v8.71c0,1.28-.58,1.81-1.85,1.81s-1.83-.52-1.83-1.81v-15.94c0-1.28,.56-1.81,1.83-1.81s1.85,.52,1.85,1.81v3.57c2.72,.83,5.67,2.05,8.19,3.35Z" style="fill:#f49ea6;"/><path d="M118.46,55.05c1.42,0,2.29,.57,2.29,2.07,0,.81-.3,2.11-.52,2.9-.67,2.31-1.85,4.55-3.45,6.34-2.31,2.55-5.24,3.94-8.47,4.83-.58,.15-1.55,.39-2.13,.39-1.08,0-1.68-.83-1.68-1.87,0-1.28,.95-1.33,2.13-1.61,4.07-.98,7.24-2.5,9.18-6.47,.28-.57,1.04-2.44,1.04-3.03,0-.28-.19-.33-.43-.33h-6.21c-.93,1.2-3.56,4.29-5.11,4.29-.91,0-1.72-.85-1.72-1.76,0-.61,.26-.89,.71-1.22,1.04-.81,1.62-1.26,2.5-2.24,.88-1,1.75-2.22,2.35-3.42,.47-.91,.75-1.76,1.94-1.76,.8,0,1.92,.41,1.92,1.37,0,.5-.3,1.09-.54,1.52h6.21Z" style="fill:#f49ea6;"/></g><path d="M72.77,126.63c2-10.64,9.53-21.34,13.53-30.69-7.99,5.44-20.1,6.76-10.79-5.92,3.45-1.01,8.67-2.73,14.68-5.61,12.06-5.76,17.04-11.23,18.72-9.86,2.1,1.71-3.58,11.77-12.14,29.28-3.25,6.64-5.23,14.77-8.68,21.13-3.48,2.12-14.6,10.17-15.32,1.68Z" style="fill:#f49ea6;"/></g><g style="clip-path:url(#clippath);"><g style="opacity:.5;"><path d="M491.87,27.57h-14.09c-.77,0-1.41,.6-1.46,1.36-.2,2.61-2.41,4.66-5.03,4.66s-4.83-2.05-5.03-4.66c-.06-.77-.7-1.36-1.46-1.36h-94.6c-4.13,0-7.48,3.36-7.48,7.49v58.26c0,4.13,3.36,7.48,7.48,7.48h8.43l-.3-1.04c-.18-.63-.31-1.27-.38-1.91h-7.76c-2.5,0-4.54-2.04-4.54-4.54V35.06c0-2.5,2.04-4.55,4.54-4.55h93.36c.88,3.47,4.05,6.02,7.73,6.02s6.85-2.55,7.73-6.02h12.85c2.5,0,4.55,2.05,4.55,4.55v18.51l2.94-.86v-17.65c0-4.13-3.36-7.49-7.49-7.49Z" style="fill:#fff;"/><path d="M471.28,48.85c-1.57,0-2.86,1.28-2.86,2.86s1.28,2.85,2.86,2.85,2.86-1.28,2.86-2.85-1.28-2.86-2.86-2.86Z" style="fill:#fff;"/><path d="M471.28,54.97c-1.57,0-2.86,1.28-2.86,2.85s1.28,2.86,2.86,2.86,2.86-1.28,2.86-2.86-1.28-2.85-2.86-2.85Z" style="fill:#fff;"/><path d="M474.14,45.58c0,1.58-1.28,2.85-2.86,2.85s-2.86-1.27-2.86-2.85,1.28-2.86,2.86-2.86,2.86,1.28,2.86,2.86Z" style="fill:#fff;"/><path d="M471.28,42.31c1.57,0,2.86-1.28,2.86-2.86s-1.28-2.86-2.86-2.86-2.86,1.28-2.86,2.86,1.28,2.86,2.86,2.86Z" style="fill:#fff;"/><path d="M529.37,116.26l-16.36-55.91c-1.16-3.96-5.33-6.24-9.29-5.09l-13.52,3.96c-.74,.22-1.19,.97-1.03,1.72,.54,2.56-1,5.15-3.52,5.88-2.51,.74-5.21-.61-6.13-3.06-.27-.72-1.06-1.11-1.79-.89l-90.79,26.57c-3.96,1.16-6.25,5.33-5.09,9.29l16.36,55.91c.96,3.26,3.95,5.39,7.19,5.39,.69,0,1.4-.1,2.1-.3l90.77-26.56c.38-.11,.69-.36,.88-.71,.19-.34,.23-.75,.12-1.12-.78-2.67,.75-5.47,3.42-6.25,2.67-.78,5.48,.75,6.26,3.42,.23,.78,1.05,1.23,1.83,1l13.5-3.95c3.96-1.16,6.25-5.33,5.09-9.29Zm-5.91,6.47l-12.22,3.58c-1.71-3.36-5.62-5.14-9.36-4.05-3.74,1.1-6.08,4.71-5.7,8.46l-89.49,26.19c-2.41,.7-4.94-.68-5.64-3.09l-16.36-55.91c-.7-2.41,.68-4.94,3.09-5.64l89.59-26.22c1.82,3.08,5.58,4.64,9.12,3.6,3.54-1.03,5.86-4.37,5.74-7.95l12.33-3.61c2.41-.71,4.94,.68,5.64,3.09l16.36,55.91c.7,2.41-.68,4.94-3.09,5.64Z" style="fill:#fff;"/><g><path d="M493.26,92.82c.73-.21,1.34-.7,1.7-1.37s.45-1.44,.24-2.17c-.21-.73-.7-1.34-1.37-1.7-.67-.37-1.44-.45-2.17-.24-.73,.21-1.34,.7-1.7,1.37-.37,.67-.45,1.44-.24,2.17,.21,.73,.7,1.34,1.37,1.7,.43,.23,.89,.35,1.37,.35,.27,0,.54-.04,.8-.12Z" style="fill:#fff;"/><path d="M491.54,86.94c.73-.21,1.34-.7,1.7-1.37s.45-1.44,.24-2.17c-.44-1.51-2.03-2.38-3.54-1.94-.73,.21-1.34,.7-1.7,1.37-.37,.67-.45,1.44-.24,2.17,.36,1.24,1.5,2.05,2.74,2.05,.26,0,.53-.04,.8-.11Z" style="fill:#fff;"/><path d="M489.82,81.07h0c1.51-.44,2.38-2.03,1.94-3.54-.44-1.51-2.03-2.38-3.54-1.94-1.51,.44-2.38,2.03-1.94,3.54,.36,1.24,1.5,2.05,2.74,2.05,.26,0,.53-.04,.8-.11Z" style="fill:#fff;"/><path d="M488.1,75.19c1.51-.44,2.38-2.03,1.94-3.54-.21-.73-.7-1.34-1.37-1.7-.67-.37-1.44-.45-2.17-.24-.73,.21-1.34,.7-1.7,1.37-.37,.67-.45,1.44-.24,2.17,.36,1.24,1.51,2.05,2.74,2.05,.26,0,.53-.04,.8-.11Z" style="fill:#fff;"/></g></g></g></g></g></svg>