<?xml version="1.0" encoding="UTF-8"?><svg id="_レイヤー_2" xmlns="http://www.w3.org/2000/svg" xmlns:xlink="http://www.w3.org/1999/xlink" viewBox="0 0 490 181.48"><defs><clipPath id="clippath"><rect width="490" height="181.48" style="fill:none;"/></clipPath></defs><g id="_背景"><g><rect width="490" height="181.48" style="fill:#f49ea6;"/><g><path d="M192.46,58.07c0,1.86,.67,1.91,3.96,1.91h.54c1.06,0,3.26,0,4.27-.08,.62-.03,1.35-.1,1.94-.1,1.35,0,1.97,.55,1.97,1.93,0,1.07-.47,1.86-1.55,2.06-1.04,.21-4.48,.24-6.5,.24h-1.01c-.96,0-2.12-.05-3.05-.13-1.14-.08-2.15-.29-3.11-.97-1.45-1.05-1.68-2.64-1.68-4.31v-7.45l-2.79,.24c-.21,.03-.44,.05-.57,.05-1.22-.03-1.94-.71-1.94-2.09s.7-1.91,1.99-1.99l3.31-.26v-3.84c0-1.49,.8-1.96,2.17-1.96s2.04,.57,2.04,1.96v3.53l9.26-.68c.23-.03,.78-.08,1.09-.08,1.4,0,2.54,.65,2.54,2.38,0,2.82-2.04,5.62-4.11,7.34-.85,.71-2.15,1.7-3.29,1.7s-2.02-1.12-2.02-2.06c0-.73,.31-1.02,1.17-1.59,.88-.55,2.38-1.65,2.95-2.59,.16-.24,.39-.63,.39-.89,0-.18-.13-.24-.31-.24-.03,0-.23,0-.44,.03l-7.22,.65v7.29Z" style="fill:#fff;"/><path d="M211.06,55.28c-1.53,0-2.28-.6-2.28-2.22s.85-2.12,2.28-2.12h18.48c1.47,0,2.28,.6,2.28,2.17s-.8,2.14-2.28,2.17h-18.48Z" style="fill:#fff;"/><path d="M242.03,49.63c0,3.79,0,7.82-1.86,11.24-.54,1.02-1.24,1.99-2.07,2.8-.41,.39-.85,.65-1.45,.65-1.22,0-2.41-.99-2.41-2.25,0-.68,.34-1.15,.75-1.62,1.81-2.06,2.36-3.08,2.69-5.85,.16-1.39,.18-2.74,.18-4.13v-6.51c0-1.46,.83-1.91,2.15-1.91s1.97,.55,2.02,1.91v5.67Zm2.77-5.99c0-1.46,.8-1.88,2.15-1.88,1.27,0,1.99,.55,1.99,1.88v14.79c0,.24,0,.63,.28,.63,.54,0,1.45-.68,1.84-1.02,1.29-1.15,2.38-3.08,2.9-4.76,.39-1.23,.65-2.04,1.89-2.04,1.11,0,2.3,.6,2.3,1.86,0,1.49-1.35,4.26-2.17,5.52-1.68,2.56-4.4,4.57-7.35,5.33-.44,.1-.93,.18-1.4,.18-1.68,0-2.41-.86-2.43-2.51v-17.98Z" style="fill:#fff;"/><path d="M262.41,47.17c0,1.75-.1,3.89-.34,5.65-.13,.86-.21,1.54-1.29,1.54-.67,0-1.32-.34-1.32-1.12,0-.37,.18-1.41,.26-1.83,.21-1.07,.28-3.79,.28-4.39,0-1.02,.34-1.28,1.19-1.28,1.19,0,1.22,.76,1.22,1.44Zm4.66-2.9c.67,0,1.01,.6,1.71,2.43,.08-.71,.67-.89,1.27-.89h4.04v-.78h-4.48c-.93,0-1.58-.37-1.58-1.39s.65-1.41,1.58-1.41h4.48v-.37c0-1.1,1.04-1.28,1.89-1.28s1.89,.18,1.89,1.28v.37h4.48c.93,0,1.58,.39,1.58,1.41s-.65,1.39-1.58,1.39h-4.48v.78h4.24c.75,0,1.29,.29,1.29,1.12s-.54,1.12-1.29,1.12h-4.24v.78h4.94c1.04,0,1.58,.42,1.58,1.52s-.65,1.41-1.58,1.41h-13.74c-1.04,0-1.58-.42-1.58-1.54,0-.44,.13-.76,.47-1.07-.7,0-.93-.26-1.16-1.15-.13-.47-.31-.99-.6-1.78v17.72c0,1.2-.57,1.65-1.73,1.65s-1.66-.55-1.66-1.65v-21.75c0-1.2,.6-1.65,1.76-1.65s1.63,.52,1.63,1.65v2.48c.23-.26,.54-.42,.88-.42Zm1.99,4.57h5.02v-.78h-4.04c-.39,0-.67-.03-.96-.29v.24c0,.37-.16,.63-.39,.86,.13-.03,.23-.03,.36-.03Zm3.42,12.26v2.59c0,1.41-.62,1.93-1.97,1.93-1.27,0-1.79-.71-1.79-1.93v-8.1c0-2.2,.91-3.11,3.08-3.11h8.36c2.17,0,3.08,.89,3.08,3.11v6.64c0,2.77-.54,3.27-3.7,3.27h-.75c-1.89,0-2.67-.16-2.67-1.73,0-1.23,.57-1.59,1.45-1.59,.34,0,.93,.03,1.24,.03,.49,0,.6-.16,.6-.63v-.47h-6.94Zm6.94-5.41c0-.31-.18-.5-.49-.5h-5.95c-.31,0-.49,.18-.49,.5v.34h6.94v-.34Zm-6.94,2.46v.84h6.94v-.84h-6.94Z" style="fill:#fff;"/><path d="M308.94,61.34c.8,.58,1.24,.99,1.24,1.78,0,1.02-.75,2.22-1.89,2.22-.91,0-1.84-.99-2.43-1.65-.67,.89-1.32,1.62-2.12,1.62-.98,0-1.81-.89-1.81-1.88,0-.6,.34-.99,1.84-2.51-.78-1.31-1.94-3.5-1.94-5.04,0-1.05,.75-1.46,1.71-1.46,.88,0,1.19,.42,1.4,1.18,.18,.68,.44,1.28,.75,1.91,.26-.78,.62-2.25,.62-3.06,0-.44-.34-.55-.7-.55h-3.8v9.72c0,1.39-.59,1.88-1.92,1.88-1.24,0-1.68-.76-1.68-1.91v-8.18c-.18,.78-.6,1.1-1.35,1.1h-3.08v1.52h2.2c1.17,0,1.66,.58,1.66,1.75s-.49,1.75-1.66,1.75h-2.2v2.06c0,1.44-.62,1.91-1.99,1.91-1.27,0-1.79-.68-1.79-1.91v-2.06h-2.02c-1.19,0-1.73-.6-1.73-1.8s.62-1.7,1.73-1.7h2.02v-1.52h-2.59c-1.17,0-1.73-.57-1.73-1.78,0-.94,.54-1.67,1.53-1.67h.59c-.1-.65-.34-1.62-.52-2.27h-.36c-.91-.03-1.32-.76-1.32-1.62,0-1.07,.57-1.67,1.63-1.67h2.77v-1.44h-2.07c-1.17,0-1.68-.55-1.68-1.73s.6-1.62,1.68-1.62h2.07v-.44c0-1.41,.78-1.59,2.07-1.59,1.14,0,1.71,.39,1.71,1.59v.44h2.02c1.22,0,1.63,.55,1.63,1.73s-.54,1.62-1.63,1.62h-2.02v1.44h3.11c.6,0,1.09,.18,1.32,.78v-3.69c0-2.27,.91-3.19,3.13-3.19h5.75c1.79,0,2.69,.89,2.69,2.69,0,1.2-.16,4.13-.91,5.02-.67,.81-1.66,.81-3.78,.81h-.41c-.93,0-1.94-.1-1.94-1.62,0-1.36,.83-1.49,1.58-1.49h.72c.46,0,.91-.08,.91-1.31,0-.34-.16-.47-.47-.47h-2.98c-.46,0-.7,.24-.7,.71v4.89h4.97c.98,0,1.81,.1,2.41,1.02,.34,.5,.39,1.02,.39,1.62,0,2.48-.65,4.94-1.71,7.16,.36,.34,.78,.68,1.09,.91Zm-18.32-10.56c.18,.76,.36,1.52,.52,2.27h1.68c.15-.73,.28-1.52,.36-2.27h-2.56Zm6.39,0h-.26c-.16,.76-.34,1.52-.54,2.27h.65c.78,0,1.16,.31,1.35,1.1v-4.16c-.18,.5-.67,.78-1.19,.78Z" style="fill:#fff;"/><path d="M327.3,53.11c0,1.96-1.58,3.55-3.52,3.55s-3.52-1.59-3.52-3.55,1.58-3.55,3.52-3.55,3.52,1.59,3.52,3.55Z" style="fill:#fff;"/><path d="M197.74,101.98c0,1.57-.85,2.04-2.28,2.04s-2.12-.6-2.12-2.04v-10.43c-1.76,.84-6.75,2.98-8.51,2.98-1.4,0-2.04-1.2-2.04-2.38s.57-1.46,1.55-1.75c2.85-.84,5.1-1.62,7.79-2.9,1.71-.84,3.36-1.75,4.94-2.8,1.55-1.02,3-2.35,4.4-3.56,.41-.34,.83-.6,1.37-.6,1.19,0,2.36,1.12,2.36,2.33,0,.73-.39,1.2-.91,1.67-1.91,1.75-4.32,3.29-6.55,4.65v12.78Z" style="fill:#fff;"/><path d="M220.53,84.31c1.27,1.18,3.6,4.44,4.76,5.99,2.17,2.88,3.57,4.39,5.95,7.01,.7,.76,1.11,1.25,1.11,2.06,0,1.33-1.16,2.56-2.48,2.56-.75,0-1.24-.47-1.73-.99-2.28-2.38-6.21-8.05-8.31-10.93-.72-1.05-1.47-2.12-2.15-2.12-.36,0-.62,.26-.83,.52-.52,.65-1.99,3.11-2.54,3.97-.44,.71-1.63,2.54-2.17,3.06-.36,.37-.8,.55-1.32,.55-1.24,0-2.48-1.2-2.48-2.48,0-.99,.78-1.73,1.37-2.43,1.35-1.59,2.56-3.27,3.73-4.99,1.09-1.57,2.12-3.03,4.19-3.03,1.27,0,1.97,.39,2.9,1.25Zm5.74,1.52c-.36-.76-.49-1.02-.93-1.75-.1-.16-.18-.44-.18-.63,0-.5,.59-.86,1.04-.86,.47,0,.85,.55,1.22,1.23,.36,.68,.88,1.65,.88,2.17s-.54,.86-1.01,.86-.75-.42-1.01-1.02Zm2.9-1.05c-.18-.39-.36-.81-.59-1.18-.28-.44-.49-.78-.49-1.12,0-.5,.59-.86,1.04-.86,.49,0,.8,.47,1.22,1.18,.31,.52,.91,1.62,.91,2.22,0,.52-.57,.86-1.04,.86-.49,0-.75-.44-1.04-1.1Z" style="fill:#fff;"/><path d="M237.47,81.77c.36,0,.72,.1,1.5,.47,1.4,.65,3.39,1.73,4.68,2.54,1.24,.78,2.15,1.33,2.15,2.48,0,.94-.93,2.43-2.2,2.43-.67,0-1.37-.5-1.91-.89-1.48-1.05-3.13-1.99-4.74-2.85-.8-.42-1.55-.89-1.55-1.88,0-1.07,.96-2.3,2.07-2.3Zm20.03,4.5c0,.81-.44,1.99-.72,2.74-1.32,3.32-3.16,6.38-5.77,8.78-2.92,2.69-6.29,4.05-10.09,4.91-.72,.16-1.99,.42-2.72,.42-1.4,0-2.1-1.12-2.1-2.43,0-1.59,.96-1.88,2.3-2.06,3.73-.47,6.65-1.52,8.98-3.29,2.59-1.96,4.45-4.84,5.82-8.81,.41-1.25,.57-2.2,1.92-2.2,1.14,0,2.38,.63,2.38,1.93Z" style="fill:#fff;"/><path d="M280.86,91.03c1.29,.63,2.17,1.15,2.17,2.38s-.85,2.61-2.17,2.61c-.65,0-1.32-.37-2.07-.81-2.36-1.44-5.18-2.9-7.76-3.82v10.46c0,1.54-.7,2.17-2.23,2.17s-2.2-.63-2.2-2.17v-19.13c0-1.54,.67-2.17,2.2-2.17s2.23,.63,2.23,2.17v4.29c3.26,.99,6.81,2.46,9.83,4.03Z" style="fill:#fff;"/><path d="M288.28,86.37c0,1.75-.1,3.89-.34,5.65-.13,.86-.21,1.54-1.29,1.54-.67,0-1.32-.34-1.32-1.12,0-.37,.18-1.41,.26-1.83,.21-1.07,.29-3.79,.29-4.39,0-1.02,.34-1.28,1.19-1.28,1.19,0,1.22,.76,1.22,1.44Zm4.66-2.9c.67,0,1.01,.6,1.71,2.43,.08-.71,.67-.89,1.27-.89h4.04v-.78h-4.48c-.93,0-1.58-.37-1.58-1.39s.65-1.41,1.58-1.41h4.48v-.37c0-1.1,1.04-1.28,1.89-1.28s1.89,.18,1.89,1.28v.37h4.48c.93,0,1.58,.39,1.58,1.41s-.65,1.39-1.58,1.39h-4.48v.78h4.24c.75,0,1.29,.29,1.29,1.12s-.54,1.12-1.29,1.12h-4.24v.78h4.94c1.04,0,1.58,.42,1.58,1.52s-.65,1.41-1.58,1.41h-13.74c-1.04,0-1.58-.42-1.58-1.54,0-.44,.13-.76,.47-1.07-.7,0-.93-.26-1.17-1.15-.13-.47-.31-.99-.59-1.78v17.72c0,1.2-.57,1.65-1.73,1.65s-1.66-.55-1.66-1.65v-21.75c0-1.2,.59-1.65,1.76-1.65s1.63,.52,1.63,1.65v2.48c.23-.26,.54-.42,.88-.42Zm1.99,4.57h5.02v-.78h-4.04c-.39,0-.67-.03-.96-.29v.24c0,.37-.16,.63-.39,.86,.13-.03,.23-.03,.36-.03Zm3.42,12.26v2.59c0,1.41-.62,1.93-1.97,1.93-1.27,0-1.79-.71-1.79-1.93v-8.1c0-2.2,.91-3.11,3.08-3.11h8.36c2.17,0,3.08,.89,3.08,3.11v6.64c0,2.77-.54,3.27-3.7,3.27h-.75c-1.89,0-2.67-.16-2.67-1.73,0-1.23,.57-1.59,1.45-1.59,.34,0,.93,.03,1.24,.03,.49,0,.59-.16,.59-.63v-.47h-6.94Zm6.94-5.41c0-.31-.18-.5-.49-.5h-5.95c-.31,0-.49,.18-.49,.5v.34h6.94v-.34Zm-6.94,2.46v.84h6.94v-.84h-6.94Z" style="fill:#fff;"/><path d="M334.81,100.54c.8,.58,1.24,.99,1.24,1.78,0,1.02-.75,2.22-1.89,2.22-.91,0-1.84-.99-2.43-1.65-.67,.89-1.32,1.62-2.12,1.62-.98,0-1.81-.89-1.81-1.88,0-.6,.34-.99,1.84-2.51-.78-1.31-1.94-3.5-1.94-5.04,0-1.05,.75-1.46,1.71-1.46,.88,0,1.19,.42,1.4,1.18,.18,.68,.44,1.28,.75,1.91,.26-.78,.62-2.25,.62-3.06,0-.44-.34-.55-.7-.55h-3.8v9.72c0,1.39-.6,1.88-1.92,1.88-1.24,0-1.68-.76-1.68-1.91v-8.18c-.18,.78-.59,1.1-1.35,1.1h-3.08v1.52h2.2c1.16,0,1.66,.58,1.66,1.75s-.49,1.75-1.66,1.75h-2.2v2.06c0,1.44-.62,1.91-1.99,1.91-1.27,0-1.79-.68-1.79-1.91v-2.06h-2.02c-1.19,0-1.73-.6-1.73-1.8s.62-1.7,1.73-1.7h2.02v-1.52h-2.59c-1.16,0-1.73-.57-1.73-1.78,0-.94,.54-1.67,1.53-1.67h.6c-.1-.65-.34-1.62-.52-2.27h-.36c-.91-.03-1.32-.76-1.32-1.62,0-1.07,.57-1.67,1.63-1.67h2.77v-1.44h-2.07c-1.16,0-1.68-.55-1.68-1.73s.59-1.62,1.68-1.62h2.07v-.44c0-1.41,.78-1.59,2.07-1.59,1.14,0,1.71,.39,1.71,1.59v.44h2.02c1.22,0,1.63,.55,1.63,1.73s-.54,1.62-1.63,1.62h-2.02v1.44h3.11c.59,0,1.09,.18,1.32,.78v-3.69c0-2.27,.91-3.19,3.13-3.19h5.75c1.79,0,2.69,.89,2.69,2.69,0,1.2-.16,4.13-.91,5.02-.67,.81-1.66,.81-3.78,.81h-.41c-.93,0-1.94-.1-1.94-1.62,0-1.36,.83-1.49,1.58-1.49h.72c.47,0,.91-.08,.91-1.31,0-.34-.16-.47-.47-.47h-2.98c-.47,0-.7,.24-.7,.71v4.89h4.97c.98,0,1.81,.1,2.41,1.02,.34,.5,.39,1.02,.39,1.62,0,2.48-.65,4.94-1.71,7.16,.36,.34,.78,.68,1.09,.91Zm-18.32-10.56c.18,.76,.36,1.52,.52,2.27h1.68c.16-.73,.29-1.52,.36-2.27h-2.56Zm6.39,0h-.26c-.15,.76-.34,1.52-.54,2.27h.65c.78,0,1.17,.31,1.35,1.1v-4.16c-.18,.5-.67,.78-1.19,.78Z" style="fill:#fff;"/><path d="M343.96,83.5c.16-.94,.29-1.67,.57-2.17s.72-.81,1.55-.81c1.11,0,2.3,.37,2.3,1.7,0,.34-.13,1.28-.52,2.85,.23-.03,.46-.03,.7-.03,1.94,0,3.86,.21,4.94,2.09,1.01,1.75,1.27,3.89,1.27,5.91,0,2.48-.16,6.53-1.53,8.65-1.01,1.57-2.51,2.17-4.32,2.17-1.32,0-2.74-.31-3.93-.94-.7-.37-1.09-.84-1.09-1.65,0-.97,.49-2.09,1.73-2.09,.39,0,.67,.1,1.32,.34,.49,.18,1.09,.34,1.63,.34,1.29,0,1.5-.94,1.76-2.14,.36-1.65,.41-3.53,.41-5.2,0-2.35-.16-3.71-2.85-3.71-.34,0-.67,.03-1.01,.05-1.09,4.05-2.48,8.63-4.19,12.42-.44,.99-1.09,2.27-2.36,2.27-1.06,0-2.41-.86-2.41-2.04,0-.63,.34-1.25,.96-2.33,1.61-2.74,2.92-6.85,3.75-9.93-.49,.05-2.46,.26-2.79,.26-1.27,0-1.89-.71-1.89-1.96,0-1.12,.44-1.75,1.53-1.96,1.09-.21,2.98-.29,4.12-.34,.13-.63,.23-1.18,.34-1.75Zm11.31-.65c1.48,0,3,1.8,3.78,2.95,1.14,1.7,1.76,3.66,2.07,5.67,.13,.78,.26,2.01,.26,2.8,0,.55-.03,1.12-.41,1.54-.44,.5-1.24,.71-1.86,.71-.98,0-1.53-.37-1.71-.92-.23-.68-.29-1.59-.31-2.43-.05-1.65-.54-3.61-1.29-5.02-.52-.97-1.32-1.78-2.1-2.51-.26-.26-.39-.73-.39-1.07,0-1.02,1.01-1.73,1.97-1.73Zm2.15,.29c-.16-.39-.49-1.1-.7-1.44-.41-.73-.46-.89-.46-1.15,0-.5,.59-.84,1.04-.84,.49,0,.85,.52,1.22,1.23,.28,.55,.88,1.7,.88,2.3s-.62,.86-1.01,.86c-.49,0-.7-.37-.96-.97Zm3.05-.37c-.21-.44-.52-1.1-.75-1.52-.34-.6-.44-.86-.44-1.12,0-.55,.6-.84,1.01-.84,.52,0,.85,.55,1.19,1.18,.29,.52,.91,1.73,.91,2.3,0,.52-.54,.86-1.01,.86-.54,0-.72-.44-.91-.86Z" style="fill:#fff;"/><path d="M187.62,122.65c0,.13-.08,1.18-.18,2.35-.13,1.41-.23,3.24-.23,4.76,0,1.91,.18,5.59,1.14,7.24,.26,.42,.7,.71,1.22,.71,1.47,0,2.1-2.01,2.54-3.45,.28-.89,.7-1.31,1.66-1.31,1.14,0,2.2,.65,2.2,1.88,0,1.59-1.14,3.95-2.1,5.2-1.14,1.52-2.56,2.48-4.5,2.48-2.3,0-3.78-1.46-4.68-3.5-1.4-3.11-1.53-7.58-1.53-10.12,0-1.28,.1-5.7,.39-6.74,.28-1.07,.93-1.41,1.99-1.41,1.29,0,2.1,.5,2.1,1.91Zm16.15,18.04c-2.1,0-2.2-1.44-2.2-2.2v-1.73c0-2.38-.1-6.9-1.24-8.94-.72-1.31-1.47-1.52-2.85-1.7-1.24-.16-1.71-.71-1.71-1.96,0-1.39,.8-2.12,2.15-2.12,2.35,0,4.74,1.31,5.98,3.35,1.81,2.98,2.07,9.17,2.07,12.68,0,1.59-.47,2.61-2.2,2.61Z" style="fill:#fff;"/><path d="M216.39,129.94c2.15-1.05,3.67-1.44,6.05-1.44,2.12,0,4.87,.42,6.47,1.93,1.4,1.33,2.02,2.98,2.02,4.91,0,2.56-1.16,4.97-3.54,6.06-2.56,1.18-5.43,1.46-8.2,1.46-1.53,0-5-.18-6.31-.78-.78-.37-1.11-.89-1.11-1.73,0-.99,.57-2.01,1.66-2.01,.36,0,.96,.1,1.79,.29,1.06,.24,2.56,.39,4.5,.39,2.51,0,6.88-.42,6.88-3.79,0-2.56-2.67-3.14-4.71-3.14-2.54,0-5.07,.6-6.96,2.4-.59,.58-.98,.92-1.86,.92-.98,0-2.33-.63-2.33-1.8,0-.55,.18-.99,.65-1.83,.75-1.36,1.63-3.55,2.1-5.04h-2.1c-1.14,0-2.41-.08-2.41-1.96s1.37-1.93,2.74-1.93h.57c.78,0,1.5,0,2.28-.03,.08-.34,.16-.71,.21-1.02,.26-1.36,.47-2.17,2.25-2.17,1.16,0,2.25,.34,2.25,1.7,0,.29-.05,.71-.23,1.44,2.69-.03,5.67-.05,7.79-.21,.85-.05,1.79-.1,2.67-.1,1.35,0,2.1,.55,2.1,1.96s-.8,1.88-2.12,1.93c-3.88,.18-7.79,.26-11.7,.34-.44,1.2-.78,2.12-1.37,3.24Z" style="fill:#fff;"/><path d="M248.06,134.51h8.54c1.45,0,1.86,.6,1.86,1.99,0,1.25-.7,1.7-1.86,1.7h-8.54v3.89c0,1.54-.65,1.91-2.07,1.91-1.35,0-1.89-.55-1.89-1.91v-3.89h-8.38c-1.42,0-1.86-.6-1.86-1.99,0-1.25,.72-1.7,1.86-1.7h8.38v-1.91h-4.71c-2.25,0-3.16-.91-3.16-3.19v-6.38c0-2.25,.91-3.16,3.16-3.16h13.59c2.25,0,3.13,.91,3.13,3.16v6.38c0,2.27-.88,3.19-3.13,3.19h-4.92v1.91Zm4.12-10.64c0-.44-.23-.71-.7-.71h-10.69c-.44,0-.7,.26-.7,.71v.89h12.09v-.89Zm-12.09,3.79v.97c0,.44,.26,.71,.7,.71h10.69c.44,0,.7-.26,.7-.71v-.97h-12.09Z" style="fill:#fff;"/><path d="M263.65,128.63c4.32-2.4,8.62-4.78,12.4-7.92,.62-.5,1.17-.94,1.99-.94,1.19,0,2.33,.81,2.33,2.06,0,1.02-.67,1.57-1.4,2.12-2.64,2.06-7.61,4.73-10.66,6.25-1.01,.5-1.5,.78-1.5,1.23,0,.29,.29,.47,.49,.6,.57,.34,1.73,.94,2.79,1.36,3.16,1.28,7.56,3.71,10.17,5.54,.72,.5,1.27,1.07,1.27,2.01,0,1.1-1.01,2.27-2.28,2.27-.39,0-.8-.05-1.19-.29-.8-.5-3.08-2.12-3.88-2.69-2.79-2.01-6.65-3.97-9.83-5.44-1.42-.65-2.77-1.46-2.77-3.27,0-1.49,.88-2.25,2.07-2.9Z" style="fill:#fff;"/><path d="M302.36,129.31v.57h3.73c2.17,0,3.05,.89,3.05,3.11v7.45c0,2.22-.88,3.11-3.05,3.11h-10.92c-2.2,0-3.08-.89-3.08-3.11v-7.45c0-2.22,.88-3.11,3.08-3.11h3.62v-.57c0-.44,.05-.78,.31-1.15h-7.89v2.98c0,3.29-.44,6.9-1.32,10.06-.44,1.44-.8,2.56-2.12,2.56-.98,0-2.2-.63-2.2-1.88,0-.47,.1-.92,.34-1.75,.96-3.11,1.47-5.78,1.47-9.04v-7.97c0-2.61,.6-3.24,3.21-3.24h15.4c2.69,0,3.21,.52,3.21,3.24v1.83c0,2.72-.52,3.21-3.21,3.21h-3.93c.26,.37,.31,.71,.31,1.15Zm2.48-4.23c.31,0,.49-.18,.49-.5v-.76c0-.34-.16-.52-.49-.52h-13.15c-.34,0-.49,.18-.49,.52v1.25h13.64Zm-6.06,10.09v-2.09h-2.51c-.34,0-.49,.18-.49,.5v1.59h3Zm-3,4.55c0,.34,.16,.5,.49,.5h2.51v-2.22h-3v1.73Zm9.7-6.14c0-.31-.15-.5-.49-.5h-2.64v2.09h3.13v-1.59Zm-3.13,4.42v2.22h2.64c.34,0,.49-.16,.49-.5v-1.73h-3.13Z" style="fill:#fff;"/><path d="M315.4,128.63c4.32-2.4,8.62-4.78,12.4-7.92,.62-.5,1.17-.94,1.99-.94,1.19,0,2.33,.81,2.33,2.06,0,1.02-.67,1.57-1.4,2.12-2.64,2.06-7.61,4.73-10.66,6.25-1.01,.5-1.5,.78-1.5,1.23,0,.29,.29,.47,.49,.6,.57,.34,1.73,.94,2.79,1.36,3.16,1.28,7.56,3.71,10.17,5.54,.72,.5,1.27,1.07,1.27,2.01,0,1.1-1.01,2.27-2.28,2.27-.39,0-.8-.05-1.19-.29-.8-.5-3.08-2.12-3.88-2.69-2.79-2.01-6.65-3.97-9.83-5.44-1.42-.65-2.77-1.46-2.77-3.27,0-1.49,.88-2.25,2.07-2.9Z" style="fill:#fff;"/><path d="M352.14,139.48c0,1.41-1.11,2.54-2.48,2.54s-2.48-1.12-2.48-2.54,1.11-2.51,2.48-2.51,2.48,1.12,2.48,2.51Zm-1.14-5.78c-.1,.91-.31,1.57-1.37,1.57s-1.22-.71-1.32-1.57l-.91-7.01v-5.02c0-1.57,.83-2.12,2.3-2.12s2.2,.63,2.2,2.12v5.02l-.91,7.01Z" style="fill:#fff;"/></g><circle cx="90.74" cy="90.74" r="59.89" style="fill:#fff;"/><g style="clip-path:url(#clippath);"><g style="opacity:.5;"><path d="M436.34,24.68c-36.42,0-66.06,29.63-66.06,66.06s29.64,66.06,66.06,66.06,66.06-29.63,66.06-66.06-29.63-66.06-66.06-66.06Zm0,125.03c-32.52,0-58.97-26.45-58.97-58.97s26.45-58.97,58.97-58.97,58.97,26.45,58.97,58.97-26.45,58.97-58.97,58.97Z" style="fill:#fff;"/><path d="M441.52,75.55c0-2.47-.71-2.94-3.53-2.94h-3.41c-2.83,0-3.53,.47-3.53,2.94,0,1.65,.24,10.01,.24,15.42v21.55c0,4.24-.24,13.42-.24,15.3,0,2.47,.71,2.94,3.53,2.94h3.41c2.83,0,3.53-.47,3.53-2.94,0-1.65-.24-10.48-.24-15.3v-21.55c0-5.53,.24-13.89,.24-15.42Z" style="fill:#fff;"/><path d="M436.58,50.71c-4.47,0-7.06,3.3-7.06,7.18s2.94,6.47,6.59,6.47c4.59,0,7.06-3.41,7.06-7.53,0-3.65-2.83-6.12-6.59-6.12Z" style="fill:#fff;"/></g></g><g><g><path d="M68.86,58.32c.62-.09,1.19-.13,1.81-.13,3.97,0,7.89,1.42,7.89,6.08,0,2.66-1.44,4.68-3.9,5.57-1.14,.41-2.39,.59-3.6,.59-.8,0-2.07-.07-2.07-1.68,0-1.42,1.14-1.42,1.88-1.42h.09c2.01,0,3.97-.65,3.97-3.05,0-2.68-2.29-3.09-4.44-3.09-.58,0-1.04,.04-1.62,.13v3.38c0,1.46-.02,2.85-.86,4.12-.8,1.18-1.96,1.52-3.32,1.52-2.8,0-4.85-1.96-4.85-4.81,0-3.55,2.8-5.36,5.76-6.49v-2.16c-1.32,.04-2.54,.07-3.79,.07-1.14,0-1.81-.33-1.81-1.59,0-.85,.37-1.37,1.23-1.52,.19-.04,1.19-.07,2.22-.07,.88,0,1.79-.02,2.16-.04v-1.02c0-1.22,.39-1.76,1.64-1.76s1.64,.57,1.64,1.74v.89c.22,0,.32,0,.67-.02,.54-.04,.67-.04,1.01-.04,1.08,0,1.66,.44,1.66,1.59,0,.96-.43,1.39-1.1,1.5-.58,.09-1.32,.13-2.24,.15v1.57Zm-5.86,7.01c0,.85,.5,1.81,1.44,1.81,1.16,0,1.19-1.74,1.19-2.57v-2.37c-1.32,.61-2.63,1.52-2.63,3.14Zm10.76-13.61c1.12,0,3.06,1.76,3.82,2.57,.56,.61,1.38,1.48,1.38,2.37,0,.96-.88,1.72-1.81,1.72-.69,0-1.01-.41-1.49-1.09-.75-1.07-1.6-1.98-2.67-2.72-.47-.33-.88-.72-.88-1.35,0-.81,.91-1.5,1.66-1.5Z" style="fill:#f49ea6;"/><path d="M98.09,59.78c1.08,.52,1.81,.96,1.81,1.98s-.71,2.18-1.81,2.18c-.54,0-1.1-.31-1.73-.68-1.96-1.2-4.31-2.42-6.47-3.18v8.71c0,1.28-.58,1.81-1.85,1.81s-1.83-.52-1.83-1.81v-15.94c0-1.28,.56-1.81,1.83-1.81s1.85,.52,1.85,1.81v3.57c2.72,.83,5.67,2.05,8.19,3.35Z" style="fill:#f49ea6;"/><path d="M118.47,53.96c1.42,0,2.29,.57,2.29,2.07,0,.81-.3,2.11-.52,2.9-.67,2.31-1.85,4.55-3.45,6.34-2.31,2.55-5.24,3.94-8.47,4.83-.58,.15-1.55,.39-2.13,.39-1.08,0-1.68-.83-1.68-1.87,0-1.28,.95-1.33,2.13-1.61,4.07-.98,7.24-2.5,9.18-6.47,.28-.57,1.04-2.44,1.04-3.03,0-.28-.19-.33-.43-.33h-6.21c-.93,1.2-3.56,4.29-5.11,4.29-.91,0-1.72-.85-1.72-1.76,0-.61,.26-.89,.71-1.22,1.04-.81,1.62-1.26,2.5-2.24,.88-1,1.75-2.22,2.35-3.42,.47-.91,.75-1.76,1.94-1.76,.8,0,1.92,.41,1.92,1.37,0,.5-.3,1.09-.54,1.52h6.21Z" style="fill:#f49ea6;"/></g><path d="M102.23,74.26c10.11-1.71,16.04,11.77,10.67,19.25-5.22,9.21-15.69,13.25-23.77,19.83,5.67,7.97,10.46,.06,16.31-.23,7.31,2.12-8,16.37-11.89,16.92-7.41,4.12-14.49-1.09-20.14-5.36-4.06-.68-5.57,6.46-9.07,6.62-5.11-1.47-2.04-6.97,.57-9.48,8.06-8.63,19.77-12.78,26.73-23.1,6.22-3.75,8.53-20.22-1.81-14.1-4.54,3.81-2.66,12.58-9.65,13.83-10.1,.46-.32-13.95,3.49-17.08,5.25-4.58,11.58-7.39,18.56-7.09Z" style="fill:#f49ea6;"/></g></g></g></svg>