<?xml version="1.0" encoding="UTF-8"?><svg id="_レイヤー_2" xmlns="http://www.w3.org/2000/svg" viewBox="0 0 288.43 86.19"><g id="_タイトル"><rect x="1.65" y="1.65" width="285.12" height="82.88" rx="24.14" ry="24.14" style="fill:#fff; stroke:#33b979; stroke-miterlimit:10; stroke-width:3.31px;"/><g><path d="M103.37,33.74c-.13,.27-.4,.46-.76,.6-1.36,3.42-4.14,8.06-6.6,10.74-1.06-.8-3.18-2.06-4.51-2.69,1.59-1.46,3.32-4.01,4.08-5.7h-20.36v-4.77h23.31l.53-.33,4.31,2.16Zm-12.53,6.63c-.07,.36-.4,.63-1,.73-.76,7-3.55,14.52-10.11,18.57-1.09-.9-3.05-2.45-4.41-3.18,6.07-3.22,8.72-9.65,9.05-16.78l6.47,.66Z" style="fill:#33b979;"/><path d="M130.54,37.52c-.13,.3-.53,.53-.83,.7-3.88,10.88-8.95,17.27-17.81,21.72-.83-1.13-2.32-2.85-3.78-3.88,8.09-3.71,12.67-9.15,15.02-15.95h-8.72c-1.56,2.32-4.28,5.27-6.9,7.33-.96-.96-2.82-2.49-4.15-3.28,4.21-3.22,8.42-8.49,10.31-13.89l6.3,1.39c-.13,.4-.6,.63-1.13,.66-.5,1.06-1.13,2.09-1.62,3.08h8.39l.73-.33,4.18,2.45Z" style="fill:#33b979;"/><path d="M161.71,38.19c-.1,.27-.36,.5-.73,.63-1.43,3.51-4.05,8.46-6.1,10.94-1.13-.76-2.98-1.66-4.48-2.29,1.26-1.36,2.62-3.38,3.38-5.27l-7.46,1.89v6.9c0,2.35,.66,3.22,3.02,3.22h5.14c1.23,0,3.85-.27,5.11-.5,.03,1.46,.1,3.55,.2,4.91-1.36,.2-3.68,.3-5.21,.3h-5.31c-5.7,0-8.16-2.52-8.16-7.73v-5.77l-6.83,1.72-1.23-4.71,8.06-1.92v-9.32l6.23,.3c-.03,.46-.43,.73-1.03,.86v6.9l10.61-2.62,.46-.4,4.31,1.96Z" style="fill:#33b979;"/><path d="M188.75,34.31c-.13,.3-.4,.53-.7,.66-1.89,4.31-3.38,7.1-6,10.74,3.08,2.52,7.69,6.7,10.58,9.71l-4.48,3.98c-2.39-2.95-6.86-7.56-9.35-9.71-3.22,3.48-7.2,7.16-11.24,9.68-.83-1.09-2.62-2.95-3.75-3.88,7.79-4.21,14.29-11.47,17.28-18.27h-14.32v-4.81h17.21l.83-.23,3.95,2.12Z" style="fill:#33b979;"/></g><polyline points="222.67 34.81 230.96 43.09 222.67 51.38" style="fill:none; stroke:#33b979; stroke-miterlimit:10; stroke-width:3.32px;"/></g></svg>