<?xml version="1.0" encoding="UTF-8"?><svg id="_レイヤー_2" xmlns="http://www.w3.org/2000/svg" viewBox="0 0 364.44 51.99"><g id="_タイトル"><rect x="1" y="1" width="362.44" height="50" rx="14.58" ry="14.58" style="fill:#fff; stroke:#33b979; stroke-miterlimit:10; stroke-width:1.99px;"/><g><path d="M166.4,20.35c-.08,.16-.24,.28-.46,.36-.82,2.06-2.5,4.86-3.98,6.48-.64-.48-1.92-1.24-2.72-1.62,.96-.88,2-2.42,2.46-3.44h-12.28v-2.88h14.06l.32-.2,2.6,1.3Zm-7.56,4c-.04,.22-.24,.38-.6,.44-.46,4.22-2.14,8.76-6.1,11.2-.66-.54-1.84-1.48-2.66-1.92,3.66-1.94,5.26-5.82,5.46-10.12l3.9,.4Z" style="fill:#33b979;"/><path d="M182.92,22.63c-.08,.18-.32,.32-.5,.42-2.34,6.56-5.4,10.42-10.74,13.1-.5-.68-1.4-1.72-2.28-2.34,4.88-2.24,7.64-5.52,9.06-9.62h-5.26c-.94,1.4-2.58,3.18-4.16,4.42-.58-.58-1.7-1.5-2.5-1.98,2.54-1.94,5.08-5.12,6.22-8.38l3.8,.84c-.08,.24-.36,.38-.68,.4-.3,.64-.68,1.26-.98,1.86h5.06l.44-.2,2.52,1.48Z" style="fill:#33b979;"/><path d="M201.83,23.03c-.06,.16-.22,.3-.44,.38-.86,2.12-2.44,5.1-3.68,6.6-.68-.46-1.8-1-2.7-1.38,.76-.82,1.58-2.04,2.04-3.18l-4.5,1.14v4.16c0,1.42,.4,1.94,1.82,1.94h3.1c.74,0,2.32-.16,3.08-.3,.02,.88,.06,2.14,.12,2.96-.82,.12-2.22,.18-3.14,.18h-3.2c-3.44,0-4.92-1.52-4.92-4.66v-3.48l-4.12,1.04-.74-2.84,4.86-1.16v-5.62l3.76,.18c-.02,.28-.26,.44-.62,.52v4.16l6.4-1.58,.28-.24,2.6,1.18Z" style="fill:#33b979;"/><path d="M218.24,20.69c-.08,.18-.24,.32-.42,.4-1.14,2.6-2.04,4.28-3.62,6.48,1.86,1.52,4.64,4.04,6.38,5.86l-2.7,2.4c-1.44-1.78-4.14-4.56-5.64-5.86-1.94,2.1-4.34,4.32-6.78,5.84-.5-.66-1.58-1.78-2.26-2.34,4.7-2.54,8.62-6.92,10.42-11.02h-8.64v-2.9h10.38l.5-.14,2.38,1.28Z" style="fill:#33b979;"/></g><polyline points="336.78 21 341.78 26 336.78 31" style="fill:none; stroke:#33b979; stroke-miterlimit:10; stroke-width:2px;"/></g></svg>