<?xml version="1.0" encoding="UTF-8"?><svg id="_レイヤー_2" xmlns="http://www.w3.org/2000/svg" viewBox="0 0 288.05 82.79"><g id="back"><rect x="0" width="288.05" height="82.79" rx="24.14" ry="24.14" style="fill:#e098e4;"/><g><path d="M124.52,34.15c-.16,.26-.42,.53-.74,.66-3.02,12.35-8.54,19.44-19.11,23.77-.74-1.23-2.38-3.11-3.34-4.14,9.54-3.25,14.49-10.07,16.19-17.09h-18.53v-4.77h20.33l.87-.6,4.34,2.15Z" style="fill:#fff;"/><path d="M150.48,37.99c-.1,.2-.32,.36-.58,.46-1.45,3.34-3.31,6.66-5.46,8.91-.8-.66-2.41-1.72-3.4-2.28,1.41-1.26,2.76-3.18,3.4-4.8h-16v-3.81h18.28l.42-.27,3.34,1.79Zm-9.7,5.26c-.06,.3-.32,.5-.77,.56-.8,5.53-2.5,10.56-7.45,14.7-.87-.7-2.54-1.95-3.6-2.48,4.85-3.64,6.33-6.99,6.84-13.48l4.98,.7Z" style="fill:#fff;"/><path d="M158.74,38.02c.87,1.95,1.8,4.97,2.22,6.95l-3.73,1.09c-.42-2.12-1.25-4.97-2.12-6.99l3.63-1.06Zm18.47,1.03c-.1,.27-.42,.5-.87,.46-2.67,9.8-7.81,15.5-14.87,18.48-.51-.83-1.77-2.38-2.67-3.15,6.49-2.42,11.53-7.62,13.59-17.42l4.82,1.62Zm-10.86-2.32c.67,1.92,1.32,5.1,1.57,7.19l-3.95,.86c-.26-2.22-.93-5.23-1.57-7.25l3.95-.79Z" style="fill:#fff;"/><path d="M182.5,38.32c2.86,.79,5.94,1.99,8.03,3.11l-2.12,4.34c-2.06-1.13-5.27-2.52-8.03-3.34l2.12-4.11Zm.42,15.07c9.57-2.91,16.77-8.15,21.2-17.91,.96,.89,3.24,2.65,4.27,3.31-4.4,9.27-12.4,15.63-21.36,18.64,.06,.33-.1,.73-.55,.96l-3.57-5Zm3.6-23.18c2.86,.89,5.88,2.09,8.13,3.28l-2.41,4.24c-2.28-1.36-5.11-2.65-7.93-3.61l2.22-3.91Z" style="fill:#fff;"/><path d="M229.77,37.86v20.6h-3.85v-1.29h-13.33v-3.68h13.33v-4.07h-11.88v-3.68h11.88v-4.21h-12.59v-3.68h16.45Z" style="fill:#fff;"/><path d="M237.44,31.27c3.18,.96,7,2.75,9.35,4.27l-2.57,4.6c-2.28-1.56-6.1-3.38-9.09-4.5l2.31-4.37Zm-1.54,22.12c10.57-3.31,17.92-9.77,21.58-18.84,1.45,1.19,3.15,2.15,4.59,2.98-3.98,9.01-11.6,16.09-22.1,20.03-.06,.36-.29,.73-.61,.89l-3.47-5.07Z" style="fill:#fff;"/></g><path d="M79.02,27.28c-2.01-4.02-6.12-6.56-10.61-6.56h-3.83c-.52,4.38-4.42,7.78-9.15,7.78s-8.63-3.4-9.15-7.78h-3.83c-4.49,0-8.6,2.54-10.61,6.56l-8.01,16.02,12.42,4.52,3.39-7.39v29.97h31.61v-29.97l3.39,7.39,12.42-4.52-8.01-16.02Z" style="fill:none; stroke:#fff; stroke-linecap:round; stroke-linejoin:round; stroke-width:3.31px;"/></g></svg>