<?xml version="1.0" encoding="UTF-8"?><svg id="_レイヤー_2" xmlns="http://www.w3.org/2000/svg" viewBox="0 0 173.97 50"><g id="back"><rect x="0" width="173.97" height="50" rx="14.58" ry="14.58" style="fill:#e098e4;"/><g><g><path d="M75.2,20.62c-.1,.16-.25,.32-.45,.4-1.82,7.46-5.16,11.74-11.54,14.36-.45-.74-1.43-1.88-2.02-2.5,5.76-1.96,8.75-6.08,9.77-10.32h-11.19v-2.88h12.28l.52-.36,2.62,1.3Z" style="fill:#fff;"/><path d="M91,22.94c-.06,.12-.19,.22-.35,.28-.87,2.02-2,4.02-3.3,5.38-.48-.4-1.45-1.04-2.06-1.38,.85-.76,1.67-1.92,2.06-2.9h-9.66v-2.3h11.04l.25-.16,2.02,1.08Zm-5.86,3.18c-.04,.18-.19,.3-.46,.34-.49,3.34-1.51,6.38-4.5,8.88-.52-.42-1.53-1.18-2.17-1.5,2.93-2.2,3.82-4.22,4.13-8.14l3.01,.42Z" style="fill:#fff;"/><path d="M96.11,22.96c.52,1.18,1.09,3,1.34,4.2l-2.25,.66c-.25-1.28-.76-3-1.28-4.22l2.19-.64Zm11.15,.62c-.06,.16-.25,.3-.52,.28-1.61,5.92-4.71,9.36-8.98,11.16-.31-.5-1.07-1.44-1.61-1.9,3.92-1.46,6.96-4.6,8.2-10.52l2.91,.98Zm-6.56-1.4c.41,1.16,.79,3.08,.95,4.34l-2.38,.52c-.16-1.34-.56-3.16-.95-4.38l2.39-.48Z" style="fill:#fff;"/><path d="M110.58,23.14c1.73,.48,3.59,1.2,4.85,1.88l-1.28,2.62c-1.24-.68-3.18-1.52-4.85-2.02l1.28-2.48Zm.25,9.1c5.78-1.76,10.12-4.92,12.8-10.82,.58,.54,1.96,1.6,2.58,2-2.66,5.6-7.49,9.44-12.9,11.26,.04,.2-.06,.44-.33,.58l-2.15-3.02Zm2.17-14c1.73,.54,3.55,1.26,4.91,1.98l-1.45,2.56c-1.38-.82-3.08-1.6-4.79-2.18l1.34-2.36Z" style="fill:#fff;"/><path d="M139.24,22.86v12.44h-2.33v-.78h-8.05v-2.22h8.05v-2.46h-7.18v-2.22h7.18v-2.54h-7.6v-2.22h9.93Z" style="fill:#fff;"/><path d="M144.01,18.88c1.92,.58,4.23,1.66,5.64,2.58l-1.55,2.78c-1.38-.94-3.68-2.04-5.49-2.72l1.4-2.64Zm-.93,13.36c6.38-2,10.82-5.9,13.03-11.38,.87,.72,1.9,1.3,2.77,1.8-2.4,5.44-7,9.72-13.34,12.1-.04,.22-.17,.44-.37,.54l-2.09-3.06Z" style="fill:#fff;"/></g><path d="M47.73,16.48c-1.21-2.43-3.69-3.96-6.41-3.96h-2.32c-.32,2.64-2.67,4.7-5.53,4.7s-5.21-2.05-5.53-4.7h-2.32c-2.71,0-5.19,1.53-6.41,3.96l-4.84,9.68,7.5,2.73,2.05-4.46v18.1h19.09V24.42l2.05,4.46,7.5-2.73-4.84-9.68Z" style="fill:none; stroke:#fff; stroke-linecap:round; stroke-linejoin:round; stroke-width:2px;"/></g></g></svg>