<?xml version="1.0" encoding="UTF-8"?><svg id="_レイヤー_2" xmlns="http://www.w3.org/2000/svg" viewBox="0 0 290.03 86.19"><g id="_タイトル"><rect x="1.65" y="1.65" width="286.73" height="82.88" rx="24.14" ry="24.14" style="fill:#fff; stroke:#33b979; stroke-miterlimit:10; stroke-width:3.31px;"/><g><path d="M76.69,35.23c-.17,.27-.43,.53-.76,.66-3.12,12.37-8.82,19.46-19.73,23.81-.76-1.23-2.45-3.12-3.45-4.14,9.85-3.25,14.95-10.08,16.71-17.11h-19.13v-4.77h20.99l.9-.6,4.48,2.15Z" style="fill:#33b979;"/><path d="M105.47,34.74v22.58h-5.17v-1.79h-13.93v1.82h-5.04v-22.61h24.14Zm-5.21,16.11v-11.44h-13.93v11.44h13.93Z" style="fill:#33b979;"/><path d="M138.26,33.74c-.13,.27-.4,.46-.76,.6-1.36,3.42-4.14,8.06-6.6,10.74-1.06-.8-3.18-2.06-4.51-2.69,1.59-1.46,3.32-4.01,4.08-5.7h-20.36v-4.77h23.31l.53-.33,4.31,2.16Zm-12.53,6.63c-.07,.36-.4,.63-1,.73-.76,7-3.55,14.52-10.11,18.57-1.09-.9-3.05-2.45-4.41-3.18,6.07-3.22,8.72-9.65,9.05-16.78l6.47,.66Z" style="fill:#33b979;"/><path d="M167.01,37.99c-.1,.23-.23,.46-.46,.6-.5,10.31-1.49,16.21-2.75,18.1-1.23,1.86-3.15,2.79-5.44,2.79-1.69,0-3.48-.2-5.6-.6,.03-1.36-.17-3.71-.4-5.07,1.82,.4,4.11,.73,4.97,.73,.93,0,1.62-.27,2.09-1.23,.63-1.26,1.39-5.8,1.59-11.51h-6.96c-1.49,6.23-3.91,12.53-10.08,17.71-.93-.86-2.85-2.32-4.15-3.05,5.41-4.21,7.79-9.81,8.85-14.69h-7.53v-4.71h8.46c.3-2.25,.33-4.11,.46-6.56l6.47,.53c-.07,.4-.4,.7-1.06,.8-.2,1.96-.26,3.42-.53,5.27h7.43l.93-.36,3.71,1.26Zm-5.9-8.12c1.29,1.19,2.88,3.22,3.71,4.48l-2.35,1.72c-.73-1.19-2.55-3.48-3.58-4.54l2.22-1.66Zm5.37-1.26c1.29,1.19,2.92,3.12,3.75,4.34l-2.35,1.72c-.7-1.16-2.52-3.35-3.58-4.41l2.19-1.66Z" style="fill:#33b979;"/><path d="M183.32,44.95c-2.69,1.76-7,4.11-10.21,5.64-.66-1.13-2.02-2.95-3.05-3.88,8.46-3.68,18.4-10.48,23.38-16.41l4.97,3.65c-.2,.27-.56,.43-1.13,.4-2.59,2.49-5.6,5.04-8.72,7.33l1.19,.4c-.1,.33-.43,.63-1.06,.73v17.04h-5.37v-14.89Z" style="fill:#33b979;"/><path d="M221.12,49.59c-2.49-1.49-6.66-3.51-9.78-4.77v14.85h-5.4V30.36l6.47,.33c-.03,.4-.33,.76-1.06,.9v9.28l.96-1.33c3.55,1.26,8.46,3.38,11.64,5.07l-2.82,4.97Zm-2.29-17.21c1.16,.96,2.88,2.88,3.95,4.34l-2.25,1.89c-.76-1.16-2.59-3.35-3.81-4.41l2.12-1.82Zm4.61-3.02c1.33,1.16,3.05,2.88,3.95,4.24l-2.25,1.86c-.76-1.13-2.59-3.22-3.81-4.31l2.12-1.79Z" style="fill:#33b979;"/></g><polyline points="247.2 34.81 255.49 43.09 247.2 51.38" style="fill:none; stroke:#33b979; stroke-miterlimit:10; stroke-width:3.32px;"/></g></svg>