<?xml version="1.0" encoding="UTF-8"?><svg id="_レイヤー_2" xmlns="http://www.w3.org/2000/svg" viewBox="0 0 364.74 51.99"><g id="_タイトル"><rect x="1" y="1" width="362.75" height="50" rx="14.58" ry="14.58" style="fill:#fff; stroke:#33b979; stroke-miterlimit:10; stroke-width:1.99px;"/><g><path d="M147.79,21.25c-.1,.16-.26,.32-.46,.4-1.88,7.46-5.32,11.74-11.9,14.36-.46-.74-1.48-1.88-2.08-2.5,5.94-1.96,9.02-6.08,10.08-10.32h-11.54v-2.88h12.66l.54-.36,2.7,1.3Z" style="fill:#33b979;"/><path d="M165.26,20.95v13.62h-3.12v-1.08h-8.4v1.1h-3.04v-13.64h14.56Zm-3.14,9.72v-6.9h-8.4v6.9h8.4Z" style="fill:#33b979;"/><path d="M185.15,20.35c-.08,.16-.24,.28-.46,.36-.82,2.06-2.5,4.86-3.98,6.48-.64-.48-1.92-1.24-2.72-1.62,.96-.88,2-2.42,2.46-3.44h-12.28v-2.88h14.06l.32-.2,2.6,1.3Zm-7.56,4c-.04,.22-.24,.38-.6,.44-.46,4.22-2.14,8.76-6.1,11.2-.66-.54-1.84-1.48-2.66-1.92,3.66-1.94,5.26-5.82,5.46-10.12l3.9,.4Z" style="fill:#33b979;"/><path d="M202.6,22.92c-.06,.14-.14,.28-.28,.36-.3,6.22-.9,9.78-1.66,10.92-.74,1.12-1.9,1.68-3.28,1.68-1.02,0-2.1-.12-3.38-.36,.02-.82-.1-2.24-.24-3.06,1.1,.24,2.48,.44,3,.44,.56,0,.98-.16,1.26-.74,.38-.76,.84-3.5,.96-6.94h-4.2c-.9,3.76-2.36,7.56-6.08,10.68-.56-.52-1.72-1.4-2.5-1.84,3.26-2.54,4.7-5.92,5.34-8.86h-4.54v-2.84h5.1c.18-1.36,.2-2.48,.28-3.96l3.9,.32c-.04,.24-.24,.42-.64,.48-.12,1.18-.16,2.06-.32,3.18h4.48l.56-.22,2.24,.76Zm-3.56-4.9c.78,.72,1.74,1.94,2.24,2.7l-1.42,1.04c-.44-.72-1.54-2.1-2.16-2.74l1.34-1Zm3.24-.76c.78,.72,1.76,1.88,2.26,2.62l-1.42,1.04c-.42-.7-1.52-2.02-2.16-2.66l1.32-1Z" style="fill:#33b979;"/><path d="M212.54,27.12c-1.62,1.06-4.22,2.48-6.16,3.4-.4-.68-1.22-1.78-1.84-2.34,5.1-2.22,11.1-6.32,14.1-9.9l3,2.2c-.12,.16-.34,.26-.68,.24-1.56,1.5-3.38,3.04-5.26,4.42l.72,.24c-.06,.2-.26,.38-.64,.44v10.28h-3.24v-8.98Z" style="fill:#33b979;"/><path d="M235.49,29.92c-1.5-.9-4.02-2.12-5.9-2.88v8.96h-3.26V18.31l3.9,.2c-.02,.24-.2,.46-.64,.54v5.6l.58-.8c2.14,.76,5.1,2.04,7.02,3.06l-1.7,3Zm-1.38-10.38c.7,.58,1.74,1.74,2.38,2.62l-1.36,1.14c-.46-.7-1.56-2.02-2.3-2.66l1.28-1.1Zm2.78-1.82c.8,.7,1.84,1.74,2.38,2.56l-1.36,1.12c-.46-.68-1.56-1.94-2.3-2.6l1.28-1.08Z" style="fill:#33b979;"/></g><polyline points="336.78 21 341.78 26 336.78 31" style="fill:none; stroke:#33b979; stroke-miterlimit:10; stroke-width:2px;"/></g></svg>