<?xml version="1.0" encoding="UTF-8"?><svg id="_レイヤー_2" xmlns="http://www.w3.org/2000/svg" viewBox="0 0 288.05 82.79"><g id="back"><rect width="288.05" height="82.79" rx="24.14" ry="24.14" style="fill:#ffbc00;"/><g><g><path d="M167.34,39.83v2.78c.03,3.68,1.52,10.53,6.79,14.44-.83,1.06-2.22,3.08-2.95,4.3-3.61-2.65-5.7-7.91-6.16-10.93h-.03c-.6,2.98-3.11,8.15-7.42,10.89-.46-.89-1.49-2.45-2.28-3.48l-1.52,.79c-.1-.33-.2-.73-.36-1.13-3.18,.89-6.39,1.75-8.61,2.32-.03,.33-.26,.53-.53,.63l-1.85-4.73,2.48-.43v-14.67c-.79-.86-1.95-1.89-2.78-2.38,3.05-2.48,5.17-5.66,6.39-8.38l5.1,.89c-.07,.27-.33,.5-.76,.53,2.02,1.36,4.54,3.34,5.79,4.77l-3.34,3.05c-.43-.56-1.03-1.19-1.75-1.89-.13,.1-.36,.17-.66,.23v1.69h3.84v3.41c1.72-3.08,2.68-7.88,3.11-12.65l5.53,.99c-.1,.33-.4,.53-.89,.53-.17,1.36-.4,2.71-.66,4.07h7.25l2.91,.07c0,.1-.43,6.32-2.38,10.89l-3.51-1.95c.3-1.26,.6-2.95,.83-4.67h-1.56Zm-18.48-.7v-1.72c-.46,.6-.93,1.16-1.42,1.72h1.42Zm.43,3.38v.83h3.08v-.83h-3.08Zm0,4.07v.89h3.08v-.89h-3.08Zm0,7.85l2.42-.5c-.33-.56-.63-1.13-.96-1.62l3.01-1.49h-4.47v3.61Zm3.77-17.65c-.73-.7-1.56-1.36-2.35-1.99-.36,.6-.79,1.19-1.23,1.79l3.58,.2Zm3.64,14.04h-2.22c.96,1.42,1.99,3.18,2.65,4.67,4.27-4.01,5.46-9.64,5.46-12.88v-2.38c-.73,2.32-1.62,4.4-2.75,5.99-.73-.63-2.05-1.56-3.15-2.19v6.79Z" style="fill:#fff;"/><path d="M201.72,49.93l3.87,3.41c-.17,.13-.4,.2-.63,.2-.17,0-.3-.03-.46-.07-1.06,.7-2.62,1.62-4.11,2.42,1.85,.6,4.01,1.03,6.42,1.26-1.03,.99-2.29,2.91-2.88,4.21-5-.79-8.74-2.45-11.56-5.1l.03,3.44c-4.54,.5-9.27,.93-12.35,1.19-.07,.33-.36,.53-.66,.56l-1.36-4.87c1.09-.07,2.35-.1,3.74-.2v-15.1c-1.16,.66-2.35,1.26-3.54,1.79-.63-1.09-1.82-2.91-2.78-3.84,5.46-2.19,10.83-6.23,13.34-9.67l6.22,.3c-.1,.36-.43,.63-.93,.7,3.15,3.54,8.71,6.69,13.44,8.21-1.13,1.19-2.22,2.88-3.05,4.3-1.16-.5-2.35-1.09-3.54-1.79v9.3l.76-.66Zm-12.95-13.31l5.7,.33c-1.23-1.03-2.29-2.02-3.15-3.01-1.62,1.92-4.11,3.97-6.92,5.79h4.37v-3.11Zm-2.22,6.69v.96h9.54v-.96h-9.54Zm0,5.4h9.54v-1.16h-9.54v1.16Zm0,3.58v3.84l5.36-.33c-1.03-1.03-1.89-2.19-2.68-3.51h-2.68Zm7.19-12.55h4.6c-1.29-.83-2.52-1.72-3.64-2.62-.1,.27-.36,.43-.96,.53v2.09Zm.5,12.55c.53,.6,1.16,1.13,1.89,1.59,.79-.46,1.69-1.03,2.52-1.59h-4.4Z" style="fill:#fff;"/></g><g><line x1="87.37" y1="29.41" x2="87.37" y2="19.48" style="fill:none; stroke:#fff; stroke-linecap:round; stroke-linejoin:round; stroke-width:3.31px;"/><line x1="79.92" y1="29.41" x2="94.82" y2="29.41" style="fill:none; stroke:#fff; stroke-linecap:round; stroke-linejoin:round; stroke-width:3.31px;"/><path d="M79.92,19.48v9.94c0,3.23,1.16,6.1,2.95,7.91,0,0,4.5,4.5,4.5,7.75,0-3.25,4.5-7.75,4.5-7.75,1.79-1.81,2.95-4.69,2.95-7.91v-9.94" style="fill:none; stroke:#fff; stroke-linecap:round; stroke-linejoin:round; stroke-width:3.31px;"/><path d="M87.37,69.15v-24.07" style="fill:none; stroke:#fff; stroke-linecap:round; stroke-linejoin:round; stroke-width:3.31px;"/><path d="M114.69,54.24s-3.36-.84-6.17-1.54c-2.21-.55-3.76-2.54-3.76-4.82V29.41c0-2.63,1.05-5.16,2.91-7.02,1.86-1.86,4.39-2.91,7.03-2.91v49.67" style="fill:none; stroke:#fff; stroke-linecap:round; stroke-linejoin:round; stroke-width:3.31px;"/></g></g></g></svg>