<?xml version="1.0" encoding="UTF-8"?><svg id="_レイヤー_2" xmlns="http://www.w3.org/2000/svg" viewBox="0 0 173.97 50"><g id="back"><rect x="0" width="173.97" height="50" rx="14.58" ry="14.58" style="fill:#ffbc00;"/><g><g><path d="M101.07,24.05v1.68c.02,2.22,.92,6.36,4.1,8.72-.5,.64-1.34,1.86-1.78,2.6-2.18-1.6-3.44-4.78-3.72-6.6h-.02c-.36,1.8-1.88,4.92-4.48,6.58-.28-.54-.9-1.48-1.38-2.1l-.92,.48c-.06-.2-.12-.44-.22-.68-1.92,.54-3.86,1.06-5.2,1.4-.02,.2-.16,.32-.32,.38l-1.12-2.86,1.5-.26v-8.86c-.48-.52-1.18-1.14-1.68-1.44,1.84-1.5,3.12-3.42,3.86-5.06l3.08,.54c-.04,.16-.2,.3-.46,.32,1.22,.82,2.74,2.02,3.5,2.88l-2.02,1.84c-.26-.34-.62-.72-1.06-1.14-.08,.06-.22,.1-.4,.14v1.02h2.32v2.06c1.04-1.86,1.62-4.76,1.88-7.64l3.34,.6c-.06,.2-.24,.32-.54,.32-.1,.82-.24,1.64-.4,2.46h4.38l1.76,.04c0,.06-.26,3.82-1.44,6.58l-2.12-1.18c.18-.76,.36-1.78,.5-2.82h-.94Zm-11.16-.42v-1.04c-.28,.36-.56,.7-.86,1.04h.86Zm.26,2.04v.5h1.86v-.5h-1.86Zm0,2.46v.54h1.86v-.54h-1.86Zm0,4.74l1.46-.3c-.2-.34-.38-.68-.58-.98l1.82-.9h-2.7v2.18Zm2.28-10.66c-.44-.42-.94-.82-1.42-1.2-.22,.36-.48,.72-.74,1.08l2.16,.12Zm2.2,8.48h-1.34c.58,.86,1.2,1.92,1.6,2.82,2.58-2.42,3.3-5.82,3.3-7.78v-1.44c-.44,1.4-.98,2.66-1.66,3.62-.44-.38-1.24-.94-1.9-1.32v4.1Z" style="fill:#fff;"/><path d="M121.91,30.15l2.34,2.06c-.1,.08-.24,.12-.38,.12-.1,0-.18-.02-.28-.04-.64,.42-1.58,.98-2.48,1.46,1.12,.36,2.42,.62,3.88,.76-.62,.6-1.38,1.76-1.74,2.54-3.02-.48-5.28-1.48-6.98-3.08l.02,2.08c-2.74,.3-5.6,.56-7.46,.72-.04,.2-.22,.32-.4,.34l-.82-2.94c.66-.04,1.42-.06,2.26-.12v-9.12c-.7,.4-1.42,.76-2.14,1.08-.38-.66-1.1-1.76-1.68-2.32,3.3-1.32,6.54-3.76,8.06-5.84l3.76,.18c-.06,.22-.26,.38-.56,.42,1.9,2.14,5.26,4.04,8.12,4.96-.68,.72-1.34,1.74-1.84,2.6-.7-.3-1.42-.66-2.14-1.08v5.62l.46-.4Zm-7.82-8.04l3.44,.2c-.74-.62-1.38-1.22-1.9-1.82-.98,1.16-2.48,2.4-4.18,3.5h2.64v-1.88Zm-1.34,4.04v.58h5.76v-.58h-5.76Zm0,3.26h5.76v-.7h-5.76v.7Zm0,2.16v2.32l3.24-.2c-.62-.62-1.14-1.32-1.62-2.12h-1.62Zm4.34-7.58h2.78c-.78-.5-1.52-1.04-2.2-1.58-.06,.16-.22,.26-.58,.32v1.26Zm.3,7.58c.32,.36,.7,.68,1.14,.96,.48-.28,1.02-.62,1.52-.96h-2.66Z" style="fill:#fff;"/></g><g><line x1="52.77" y1="17.76" x2="52.77" y2="11.76" style="fill:none; stroke:#fff; stroke-linecap:round; stroke-linejoin:round; stroke-width:2px;"/><line x1="48.27" y1="17.76" x2="57.27" y2="17.76" style="fill:none; stroke:#fff; stroke-linecap:round; stroke-linejoin:round; stroke-width:2px;"/><path d="M48.27,11.76v6c0,1.95,.7,3.68,1.78,4.78,0,0,2.72,2.72,2.72,4.68,0-1.96,2.72-4.68,2.72-4.68,1.08-1.1,1.78-2.83,1.78-4.78v-6" style="fill:none; stroke:#fff; stroke-linecap:round; stroke-linejoin:round; stroke-width:2px;"/><path d="M52.77,41.76v-14.54" style="fill:none; stroke:#fff; stroke-linecap:round; stroke-linejoin:round; stroke-width:2px;"/><path d="M69.27,32.76s-2.03-.51-3.73-.93c-1.34-.33-2.27-1.53-2.27-2.91v-11.16c0-1.59,.63-3.12,1.76-4.24,1.12-1.12,2.65-1.76,4.24-1.76v30" style="fill:none; stroke:#fff; stroke-linecap:round; stroke-linejoin:round; stroke-width:2px;"/></g></g></g></svg>