<?xml version="1.0" encoding="UTF-8"?><svg id="_レイヤー_2" xmlns="http://www.w3.org/2000/svg" viewBox="0 0 288.05 82.79"><g id="back"><rect width="288.05" height="82.79" rx="24.14" ry="24.14" style="fill:#3fa200;"/><g><g><path d="M171.53,50.13h-5.43c1.79,1.06,4.01,1.89,6.39,2.35-.93,.83-2.19,2.48-2.75,3.58-1.26-.36-2.42-.83-3.51-1.39v6.72h-4.67v-.89h-10.5v.89h-4.44v-6.72c-1.13,.63-2.38,1.23-3.81,1.79-.46-1.09-1.72-2.78-2.62-3.51,2.42-.76,4.34-1.72,5.86-2.81h-4.93v-3.58h8.41c.13-.27,.3-.5,.43-.76h-4.3v-9.54h21.49v9.54h-11.69c-.17,.1-.36,.17-.63,.17l-.3,.6h16.99v3.58Zm-22.98-14.17v-.66h-7.12v-3.74h7.12v-1.72l5.66,.3c-.03,.36-.33,.6-.99,.7v.73h6.03v-1.72l5.73,.3c-.03,.36-.3,.6-.99,.73v.7h7.29v3.74h-7.29v.66h-4.73v-.66h-6.03v.66h-4.67Zm1.62,2.95v.86h12.25v-.86h-12.25Zm0,3.34v.89h12.25v-.89h-12.25Zm11.39,12.32v-.73h-10.5v.73h10.5Zm-10.5,3.11h10.5v-.79h-10.5v.79Zm10.4-6.66c-.27-.3-.53-.6-.76-.89h-8.54c-.23,.3-.5,.6-.79,.89h10.1Z" style="fill:#fff;"/><path d="M183.26,37.71c-.2,.36-.4,.46-.86,.53-.46,4.47-.7,6.39-1.36,7.32h.03c2.72-1.79,7.12-3.01,10.1-3.01,4.77,0,8.54,2.68,8.54,7.78,0,6.42-4.67,9.7-18.11,10.2-.36-1.19-1.09-3.25-1.85-4.6,10.79-.43,14.5-1.92,14.5-5.5,0-1.95-1.49-3.38-4.01-3.38s-7.85,1.09-10.33,4.9l-4.64-1.99c.73-.5,1.95-7.15,2.02-13.01l5.96,.76Zm-1.26-7.25c3.77,.33,9.14,1.13,12.71,2.45l-1.62,4.93c-3.28-1.32-9.11-2.35-12.58-2.71l1.49-4.67Z" style="fill:#fff;"/><path d="M213.39,31.55c-.07,.4-.36,.7-.99,.79-.3,4.67-.63,11.92-.63,16.75,0,3.91,2.02,5.7,5.23,5.7,2.91,0,6.36-1.52,10.13-5.03,.56,1.09,2.12,3.71,2.85,4.57-4.24,3.97-8.48,5.69-13.01,5.69-7.95,0-10.7-4.27-10.7-10.89,0-4.57,.2-13.87,.43-17.81l6.69,.23Z" style="fill:#fff;"/></g><g><polyline points="106.26 32.59 106.26 67.07 62.87 67.07 62.87 32.59" style="fill:none; stroke:#fff; stroke-linecap:round; stroke-linejoin:round; stroke-width:3.31px;"/><polyline points="113.6 37.73 84.57 17.4 55.53 37.73" style="fill:none; stroke:#fff; stroke-linecap:round; stroke-linejoin:round; stroke-width:3.31px;"/><polyline points="78.3 67.07 78.3 48.66 90.84 48.66 90.84 67.07" style="fill:none; stroke:#fff; stroke-linecap:round; stroke-linejoin:round; stroke-width:3.31px;"/></g></g></g></svg>