<?xml version="1.0" encoding="UTF-8"?><svg id="_レイヤー_2" xmlns="http://www.w3.org/2000/svg" viewBox="0 0 173.97 50"><g id="back"><rect x="0" width="173.97" height="50" rx="14.58" ry="14.58" style="fill:#3fa200;"/><g><g><path d="M103.6,30.27h-3.28c1.08,.64,2.42,1.14,3.86,1.42-.56,.5-1.32,1.5-1.66,2.16-.76-.22-1.46-.5-2.12-.84v4.06h-2.82v-.54h-6.34v.54h-2.68v-4.06c-.68,.38-1.44,.74-2.3,1.08-.28-.66-1.04-1.68-1.58-2.12,1.46-.46,2.62-1.04,3.54-1.7h-2.98v-2.16h5.08c.08-.16,.18-.3,.26-.46h-2.6v-5.76h12.98v5.76h-7.06c-.1,.06-.22,.1-.38,.1l-.18,.36h10.26v2.16Zm-13.88-8.56v-.4h-4.3v-2.26h4.3v-1.04l3.42,.18c-.02,.22-.2,.36-.6,.42v.44h3.64v-1.04l3.46,.18c-.02,.22-.18,.36-.6,.44v.42h4.4v2.26h-4.4v.4h-2.86v-.4h-3.64v.4h-2.82Zm.98,1.78v.52h7.4v-.52h-7.4Zm0,2.02v.54h7.4v-.54h-7.4Zm6.88,7.44v-.44h-6.34v.44h6.34Zm-6.34,1.88h6.34v-.48h-6.34v.48Zm6.28-4.02c-.16-.18-.32-.36-.46-.54h-5.16c-.14,.18-.3,.36-.48,.54h6.1Z" style="fill:#fff;"/><path d="M110.78,22.77c-.12,.22-.24,.28-.52,.32-.28,2.7-.42,3.86-.82,4.42h.02c1.64-1.08,4.3-1.82,6.1-1.82,2.88,0,5.16,1.62,5.16,4.7,0,3.88-2.82,5.86-10.94,6.16-.22-.72-.66-1.96-1.12-2.78,6.52-.26,8.76-1.16,8.76-3.32,0-1.18-.9-2.04-2.42-2.04s-4.74,.66-6.24,2.96l-2.8-1.2c.44-.3,1.18-4.32,1.22-7.86l3.6,.46Zm-.76-4.38c2.28,.2,5.52,.68,7.68,1.48l-.98,2.98c-1.98-.8-5.5-1.42-7.6-1.64l.9-2.82Z" style="fill:#fff;"/><path d="M129.11,19.05c-.04,.24-.22,.42-.6,.48-.18,2.82-.38,7.2-.38,10.12,0,2.36,1.22,3.44,3.16,3.44,1.76,0,3.84-.92,6.12-3.04,.34,.66,1.28,2.24,1.72,2.76-2.56,2.4-5.12,3.44-7.86,3.44-4.8,0-6.46-2.58-6.46-6.58,0-2.76,.12-8.38,.26-10.76l4.04,.14Z" style="fill:#fff;"/></g><g><polyline points="64.18 19.68 64.18 40.51 37.97 40.51 37.97 19.68" style="fill:none; stroke:#fff; stroke-linecap:round; stroke-linejoin:round; stroke-width:2px;"/><polyline points="68.61 22.79 51.07 10.51 33.54 22.79" style="fill:none; stroke:#fff; stroke-linecap:round; stroke-linejoin:round; stroke-width:2px;"/><polyline points="47.29 40.51 47.29 29.39 54.86 29.39 54.86 40.51" style="fill:none; stroke:#fff; stroke-linecap:round; stroke-linejoin:round; stroke-width:2px;"/></g></g></g></svg>