<?xml version="1.0" encoding="UTF-8"?><svg id="_レイヤー_2" xmlns="http://www.w3.org/2000/svg" viewBox="0 0 256.19 60.77"><g id="_レイヤー_1-2"><g><g><polygon points="58.25 42.93 43.3 42.93 43.3 47.06 52.69 47.06 48.57 51.09 48.57 60.77 52.7 60.77 52.7 47.06 58.25 47.06 58.25 42.93" style="fill:#231815;"/><polygon points="41.73 47.05 41.73 42.93 37.6 42.93 37.6 47.06 41.72 47.06 37.6 51.09 37.6 60.77 41.73 60.77 41.73 47.05 41.73 47.05" style="fill:#231815;"/><polygon points="10.34 50.8 15.73 60.77 20.31 60.77 10.36 42.82 10.14 42.82 0 60.77 4.59 60.77 5.81 58.58 9.82 58.58 12.24 54.44 8.12 54.44 10.16 50.8 10.34 50.8" style="fill:#231815;"/><polygon points="64.74 50.8 70.12 60.77 74.71 60.77 64.76 42.82 64.54 42.82 54.4 60.77 58.98 60.77 60.2 58.58 64.22 58.58 66.64 54.44 62.53 54.44 64.55 50.8 64.74 50.8" style="fill:#231815;"/><path d="M28.98,42.82h-3.2s-.35,0-.35,0h-3.79v17.95h4.14v-13.89s3.13,0,3.13,0h.08c1.67,.01,3.02,1.37,3.02,3.04,0,1.68-1.36,3.02-3.02,3.02h-3.17l2.34,4.03,.83,.03c3.91,0,7.09-3.17,7.09-7.09,0-3.92-3.18-7.09-7.09-7.09Z" style="fill:#231815;"/><polygon points="37.57 38.95 73.83 38.95 73.83 2.7 37.57 38.95" style="fill:#666;"/><polygon points="1.16 38.95 37.41 38.95 37.41 2.7 1.16 38.95" style="fill:#fccf00;"/></g><g><path d="M84.57,23.55c8.01-2.99,8.91-8.33,8.85-13.98h4.76c-.03,1.19-.06,1.94-.2,3.34,2.93-1.54,4.44-2.93,5.48-5.45h-18.88V3.02h24.71c-.99,7.46-3.92,10.73-8.56,13.46l-2.84-2.9c-.49,3.97-1.68,9.69-10.3,13.69l-3.02-3.71Z" style="fill:#231815;"/><path d="M120.01,10.67c2.26-.61,6.76-1.86,11.49-4.5l2.23,4.32c-4.41,2.03-8.99,3.66-13.72,4.7v4.87c0,1.45,.32,1.6,2.09,1.6h7.57c2.47,0,4.61-.26,6.41-.67l.29,4.76c-1.71,.29-3.51,.41-5.25,.41h-9.95c-1.94,0-5.92-.09-5.92-4.7V3.02h4.76v7.66Zm20.1-6.73c0,2.18-1.77,3.95-3.95,3.95s-3.94-1.74-3.94-3.95,1.8-3.94,3.94-3.94,3.95,1.74,3.95,3.94Zm-5.92,0c0,1.1,.9,1.97,1.97,1.97s1.97-.87,1.97-1.97-.9-1.97-1.97-1.97-1.97,.87-1.97,1.97Z" style="fill:#231815;"/><path d="M142.07,11.83c2.49-1.51,5.63-4,7.45-8.5h16.5c-.43,5.16-1.62,10.62-5.57,15.46-2.64,3.25-6.99,6.76-14.21,8.62l-2.41-4.18c3.34-.67,7.54-2.09,11.52-5.86-2.47-1.94-4.32-3.13-7.05-4.53-.78,.75-1.62,1.51-3.16,2.5l-3.07-3.51Zm10.56-4.29c-.49,.75-.75,1.13-1.65,2.32,1.6,.72,4.24,1.91,7.11,4.12,1.59-2.61,2.06-5.16,2.29-6.44h-7.74Z" style="fill:#231815;"/><path d="M195.32,7.86v11.72h-19c-.75,5.95-2.38,8.09-3.22,9.08l-3.86-3.07c2.15-2.81,2.73-6.18,2.73-9.22V7.86h23.35Zm1.89-1.91h-27.5V1.8h27.5V5.95Zm-6.41,5.89h-14.24v3.57h14.24v-3.57Z" style="fill:#231815;"/><path d="M207.85,18.56l.26,3.45c-2.44,1.07-7.28,2.64-8.47,2.99l-.49-4.58c.73-.15,1.36-.26,2.9-.61V11.52h-2.52V7.43h2.52V1.01h3.92V7.43h1.86V1.74h18.19v6.58h-2.2v2.09h-3.05c.2,1.6,.46,2.79,.67,3.71,.35-.32,1.94-1.77,3.25-3.83l2.2,3.68c-1.77,1.83-3.39,3.07-4.32,3.68,1.25,2.93,3.05,4.61,4.35,5.74l-3.16,3.31c-3.83-4.52-5.48-10.38-5.86-16.3h-.52c-.58,.7-1.04,1.16-1.8,1.86,1.04,1.13,4.09,4.44,4.09,10.41,0,1.77-.35,3.33-1.25,4.47-.38,.49-1.6,1.1-2.47,1.1h-3.31l-.67-3.22c-2.35,1.36-3.92,2.09-4.84,2.52l-1.83-3.1c4.79-1.57,8.24-3.68,10.47-5.8-.15-.55-.26-.87-.41-1.19-.99,.93-2.93,2.44-5.95,3.89l-1.57-2.78Zm-.03-.15c.35-.12,4.09-1.54,6.15-3.45-.35-.49-.49-.67-.7-.9-2.26,1.57-3.74,2.15-4.81,2.58l-1.68-3.02c1.8-.46,4.32-1.48,6.32-3.22h-3.22v-2.09h-1.86v3.19h-2.06v7.25c.49-.15,.81-.26,1.86-.61v.26Zm14.24-11.08v-2.03h-10.38v2.03h10.38Zm-7.45,17.58c.99,0,1.71-.23,1.65-3.08-1.6,1.57-3.05,2.44-4.12,3.08h2.47Z" style="fill:#231815;"/><path d="M246.56,9.4h9.63v4.03h-9.63v2.38h8.01v11.83h-18.62V15.81h6.41V7.08h-7.22V15.34c0,4.35-.9,9.75-3.13,13.08l-3.45-3.34c1.68-2.41,2.23-7.28,2.23-9.89V2.99h10.07V.72h4.53V2.99h10.76V7.08h-9.57v2.32Zm3.68,10.27h-10.04v3.97h10.04v-3.97Z" style="fill:#231815;"/><path d="M90.89,60.11c-.46-.7-2.09-3.05-4.26-4.96l2.2-1.22h-5.42v-3.68h18.3v-1.1h-16.24v-10.07h9.43v-1.1h-11.49v-3.63h11.49v-1.48h4.44v1.48h11.46v3.63h-11.46v1.1h9.34v10.07h-2.64v1.1h4.76v3.68h-4.76v4c0,1.62-1.33,2.55-2.78,2.55h-5.95l-.9-3.94h4.64c.52,0,.67-.09,.67-.73v-1.89h-9.95c.32,.29,1.91,1.77,3.28,3.74l-4.15,2.44Zm4-18.48h-5.25v1.25h5.25v-1.25Zm0,3.63h-5.25v1.25h5.25v-1.25Zm9.51-3.63h-5.08v1.25h5.08v-1.25Zm0,3.63h-5.08v1.25h5.08v-1.25Z" style="fill:#231815;"/><path d="M113.86,33.71h11.75v12.24h-7.46v14.47h-4.29v-26.72Zm4.29,4.96h3.31v-1.42h-3.31v1.42Zm0,4.09h3.31v-1.48h-3.31v1.48Zm9.34-9.05h12.01v23.76c0,1.8-1.31,2.96-2.7,2.96h-5.95l-.84-4.53h4.38c.7,0,.78-.09,.78-.9v-9.05h-7.69v-12.24Zm7.69,4.96v-1.42h-3.6v1.42h3.6Zm-3.6,2.61v1.48h3.6v-1.48h-3.6Z" style="fill:#231815;"/><path d="M160.2,41.4h9.63v4.03h-9.63v2.38h8.01v11.83h-18.62v-11.83h6.41v-8.73h-7.22v8.27c0,4.35-.9,9.75-3.13,13.08l-3.45-3.34c1.68-2.41,2.23-7.28,2.23-9.89v-12.21h10.07v-2.26h4.53v2.26h10.76v4.09h-9.57v2.32Zm3.68,10.27h-10.04v3.97h10.04v-3.97Z" style="fill:#231815;"/><path d="M179.25,33.86c-1.71,3.45-3.51,5.51-6.24,7.69l-1.36-4.55c1.62-1.07,2.9-2.79,3.68-4.18l3.92,1.04Zm3.45,8.01v-2.41h-3.51v-3.94h3.51v-2.58h4.06v2.58h3.51v3.94h-3.51v2.41h4.03v3.92h-4.03v2.29h3.74v4h-3.74v2.47c2-.23,3.16-.43,4.12-.61l.06,2.12h2.23c.67,0,.78-.12,.78-.99v-9.63h-2.64v-4.15h8.24v4.15h-1.51v11.81c0,1.57,0,3.13-2.58,3.13h-4.29l-.41-2.55c-6.29,1.04-8.03,1.25-11.86,1.57l-.46-4.12c1.04-.03,2.32-.09,4.26-.26v-2.93h-3.63v-4h3.63v-2.29h-3.8v-2.21c-.17,.26-.38,.7-.99,1.65v15.14h-4v-10.07c-.64,.58-.84,.75-1.45,1.19l-.81-5.71c2-1.57,3.34-3.13,4.87-6.27l3.34,2.03-.15,.32h2.99Zm16.39-4h-7.6v-4.09h7.6v4.09Z" style="fill:#231815;"/></g></g></g></svg>