<?xml version="1.0" encoding="UTF-8"?><svg id="_レイヤー_2" xmlns="http://www.w3.org/2000/svg" viewBox="0 0 288.05 82.79"><g id="back"><rect width="288.05" height="82.79" rx="24.14" ry="24.14" style="fill:#009ae7;"/><g><g><path d="M139.14,42.48h-5.73v1.06c0,7.19-2.52,13.05-10.3,16.85-.93-1.06-2.45-2.58-3.71-3.51,7.22-3.28,8.91-7.91,8.91-13.31v-1.09h-7.52v7.09h-5.03v-7.09h-5.36v-4.8h5.36v-6.36l6.09,.36c-.03,.36-.36,.79-1.06,.93v5.07h7.52v-6.79l6.16,.33c-.03,.4-.36,.7-1.06,.83v5.63h5.73v4.8Z" style="fill:#fff;"/><path d="M142.39,42.61h27.65v5.03h-26.19c-.23,.33-.7,.56-1.19,.63l-.26-5.66Z" style="fill:#fff;"/><path d="M181.15,51.05c0,2.45,1.06,3.21,3.94,3.21h6.46c1.92-.03,5.66-.4,7.48-.76l.2,5.1c-1.66,.26-5.43,.46-7.28,.46h-7.05c-6.16,0-8.84-2.48-8.84-8.05V31.92l6.19,.26c-.03,.4-.3,.73-1.09,.83v9.37c3.87-1.32,9.8-3.77,13.48-5.86l3.31,4.7c-.17,.1-.36,.13-.6,.13-.2,0-.4-.03-.56-.07-2.78,1.32-10.03,4.24-15.63,5.79v3.97Zm15.03-14.27c-.66-1.19-2.38-3.51-3.41-4.57l2.15-1.62c1.26,1.19,2.78,3.25,3.58,4.47l-2.32,1.72Zm4.93-1.49c-.7-1.16-2.45-3.34-3.44-4.44l2.12-1.66c1.26,1.23,2.88,3.15,3.64,4.37l-2.32,1.72Z" style="fill:#fff;"/><path d="M228.23,34.83c-.13,.3-.4,.53-.7,.66-1.89,4.3-3.38,7.09-5.99,10.73,3.08,2.52,7.68,6.69,10.56,9.7l-4.47,3.97c-2.38-2.95-6.85-7.55-9.34-9.7-3.21,3.48-7.19,7.15-11.23,9.67-.83-1.09-2.62-2.95-3.74-3.87,7.78-4.21,14.27-11.46,17.25-18.24h-14.3v-4.8h17.18l.83-.23,3.94,2.12Z" style="fill:#fff;"/></g><g><path d="M75.14,13.12c6.89,0,12.48,5.59,12.48,12.48s-5.59,12.48-12.48,12.48-12.48-5.59-12.48-12.48,5.59-12.48,12.48-12.48h0Z" style="fill:none; stroke:#fff; stroke-linecap:round; stroke-linejoin:round; stroke-width:3.31px;"/><path d="M53.24,62.79c0-9.85,9.81-17.85,21.9-17.85s21.9,8,21.9,17.85" style="fill:none; stroke:#fff; stroke-linecap:round; stroke-linejoin:round; stroke-width:3.31px;"/></g></g></g></svg>