<?xml version="1.0" encoding="UTF-8"?><svg id="_レイヤー_2" xmlns="http://www.w3.org/2000/svg" viewBox="0 0 173.97 50"><g id="back"><rect x="0" width="173.97" height="50" rx="14.58" ry="14.58" style="fill:#009ae7;"/><g><g><path d="M84.04,25.65h-3.46v.64c0,4.34-1.52,7.88-6.22,10.18-.56-.64-1.48-1.56-2.24-2.12,4.36-1.98,5.38-4.78,5.38-8.04v-.66h-4.54v4.28h-3.04v-4.28h-3.24v-2.9h3.24v-3.84l3.68,.22c-.02,.22-.22,.48-.64,.56v3.06h4.54v-4.1l3.72,.2c-.02,.24-.22,.42-.64,.5v3.4h3.46v2.9Z" style="fill:#fff;"/><path d="M86.09,25.73h16.7v3.04h-15.82c-.14,.2-.42,.34-.72,.38l-.16-3.42Z" style="fill:#fff;"/><path d="M109.6,30.83c0,1.48,.64,1.94,2.38,1.94h3.9c1.16-.02,3.42-.24,4.52-.46l.12,3.08c-1,.16-3.28,.28-4.4,.28h-4.26c-3.72,0-5.34-1.5-5.34-4.86v-11.54l3.74,.16c-.02,.24-.18,.44-.66,.5v5.66c2.34-.8,5.92-2.28,8.14-3.54l2,2.84c-.1,.06-.22,.08-.36,.08-.12,0-.24-.02-.34-.04-1.68,.8-6.06,2.56-9.44,3.5v2.4Zm9.08-8.62c-.4-.72-1.44-2.12-2.06-2.76l1.3-.98c.76,.72,1.68,1.96,2.16,2.7l-1.4,1.04Zm2.98-.9c-.42-.7-1.48-2.02-2.08-2.68l1.28-1c.76,.74,1.74,1.9,2.2,2.64l-1.4,1.04Z" style="fill:#fff;"/><path d="M138.14,21.03c-.08,.18-.24,.32-.42,.4-1.14,2.6-2.04,4.28-3.62,6.48,1.86,1.52,4.64,4.04,6.38,5.86l-2.7,2.4c-1.44-1.78-4.14-4.56-5.64-5.86-1.94,2.1-4.34,4.32-6.78,5.84-.5-.66-1.58-1.78-2.26-2.34,4.7-2.54,8.62-6.92,10.42-11.02h-8.64v-2.9h10.38l.5-.14,2.38,1.28Z" style="fill:#fff;"/></g><g><path d="M45.38,7.92c4.16,0,7.54,3.38,7.54,7.54s-3.38,7.54-7.54,7.54-7.54-3.38-7.54-7.54,3.38-7.54,7.54-7.54h0Z" style="fill:none; stroke:#fff; stroke-linecap:round; stroke-linejoin:round; stroke-width:2px;"/><path d="M32.16,37.92c0-5.95,5.93-10.78,13.22-10.78s13.22,4.83,13.22,10.78" style="fill:none; stroke:#fff; stroke-linecap:round; stroke-linejoin:round; stroke-width:2px;"/></g></g></g></svg>